<svg width="100" height="87" viewBox="0 0 100 87" fill="none" xmlns="http://www.w3.org/2000/svg">
<path d="M28.7645 23.2232L18.6484 11.4783C18.6484 11.4783 19.7308 6.89058 18.6484 2.97562C17.5659 -0.939343 8.65862 -0.802775 9.19984 7.83644C9.19984 7.83644 0.0194047 7.29523 0.56062 13.6381C1.10184 19.9809 10.9398 16.8702 10.9398 16.8702L24.7181 31.8624L28.7645 23.2232Z" fill="white"/>
<path d="M24.718 32.3681C24.6486 32.3679 24.58 32.3534 24.5165 32.3256C24.453 32.2977 24.3959 32.2571 24.3487 32.2063L10.7779 17.4518C9.50323 17.811 4.70816 18.9693 1.94644 17.1332C1.38059 16.7477 0.913215 16.2347 0.58199 15.6356C0.250764 15.0364 0.064954 14.3677 0.0395352 13.6835C-0.0534879 12.9522 0.0181415 12.2093 0.24918 11.5092C0.480219 10.8091 0.864824 10.1694 1.37487 9.63708C3.43351 7.52279 7.2372 7.33565 8.65852 7.32047C8.56748 2.6468 11.1876 0.51734 13.747 0.0874019C16.3064 -0.342536 18.5724 0.851172 19.1237 2.84406C20.0898 6.35438 19.3969 10.3047 19.1844 11.3467L29.1438 22.8994C29.2071 22.9739 29.2475 23.0651 29.2601 23.162C29.2727 23.259 29.2569 23.3575 29.2146 23.4457L25.1681 32.0849C25.1323 32.1601 25.0785 32.2253 25.0115 32.2747C24.9444 32.3241 24.8662 32.3562 24.7837 32.3681H24.718ZM10.9397 16.3643C11.0099 16.3639 11.0795 16.378 11.1439 16.4059C11.2083 16.4337 11.2663 16.4747 11.314 16.5262L24.5713 30.9569L28.1625 23.299L18.2487 11.8121C18.1972 11.7514 18.1608 11.6795 18.1423 11.6022C18.1239 11.5249 18.1239 11.4443 18.1424 11.3669C18.1424 11.3214 19.1794 6.85007 18.1424 3.11214C17.7378 1.6453 15.8764 0.750012 13.9088 1.0889C11.6883 1.4632 9.41218 3.42574 9.68532 7.81616C9.68917 7.88694 9.6781 7.95774 9.65283 8.02396C9.62756 8.09019 9.58865 8.15036 9.53863 8.20058C9.48827 8.25217 9.42747 8.2924 9.3603 8.31857C9.29313 8.34474 9.22114 8.35625 9.14916 8.35233C9.09858 8.35233 4.28327 8.09942 2.06783 10.3756C1.65812 10.8038 1.351 11.3196 1.16963 11.8838C0.988254 12.4481 0.937369 13.0462 1.02081 13.633C1.03235 14.1657 1.17048 14.688 1.42378 15.1568C1.67708 15.6255 2.03828 16.0273 2.47753 16.3289C5.19373 18.1498 10.702 16.4503 10.7576 16.4352C10.8115 16.3968 10.8741 16.3725 10.9397 16.3643Z" fill="#093F68"/>
<path d="M67.9139 57.4411C68.3477 56.4381 68.7194 55.4093 69.0267 54.3607C69.9068 51.3258 70.4885 47.9318 69.3909 44.902C68.1062 41.3614 65.9312 38.2153 63.5943 35.2917C60.7032 31.6297 57.087 28.6042 52.9723 26.4046C49.3014 24.5021 45.1965 23.5935 41.0656 23.7693C38.2894 23.8273 35.529 23.3375 32.9423 22.3278C31.6419 21.8866 30.4208 21.2394 29.3258 20.4108C28.471 19.6824 28.0815 18.3521 26.7209 18.3572C25.9477 18.4461 25.2345 18.8171 24.7178 19.3992C23.8527 20.19 23.062 21.0586 22.3557 21.994C22.2422 22.1713 22.0964 22.3257 21.9258 22.4492C21.6495 22.5773 21.3501 22.6478 21.0457 22.6566C19.1691 22.9297 18.203 24.781 18.4054 26.5311C18.4913 27.2443 19.068 27.7855 19.6142 28.2609C22.0978 30.4309 21.0963 33.2128 20.6663 36.2628C19.594 43.8955 20.7118 52.1604 24.3537 59.0242C26.0031 62.1152 28.0881 64.9531 30.5448 67.451C37.2467 74.0265 49.9425 73.5207 57.555 69.1607C62.1693 66.4587 65.799 62.3523 67.9139 57.4411Z" fill="#FFBC0E"/>
<path d="M44.5858 72.9239C39.1686 72.9239 33.807 71.3711 30.1904 67.8304C27.6996 65.281 25.5905 62.3848 23.9285 59.2317C20.4182 52.6309 19.0525 44.2294 20.1855 36.182C20.2513 35.7065 20.3322 35.2361 20.4132 34.7758C20.8279 32.3631 21.187 30.2792 19.3004 28.6302C18.7946 28.1902 18.0359 27.5276 17.9246 26.5766C17.702 24.6495 18.7844 22.4644 20.9948 22.1458L21.1921 22.1205C21.3664 22.1171 21.5383 22.0793 21.6979 22.0092C21.8069 21.9207 21.9023 21.8168 21.9812 21.7006C22.7072 20.7319 23.5217 19.8328 24.4141 19.0148C25.0173 18.3503 25.8473 17.9353 26.7408 17.8514C27.9092 17.8514 28.5213 18.6506 29.0119 19.293C29.2013 19.5596 29.4183 19.8054 29.6593 20.0264C30.7086 20.8223 31.8783 21.4456 33.1241 21.8726C35.6483 22.8567 38.3415 23.3345 41.0502 23.2788C45.2623 23.1058 49.4466 24.035 53.1896 25.9747C57.3669 28.2083 61.0409 31.2762 63.9836 34.9883C65.9764 37.4869 68.4448 40.8506 69.856 44.7453C71.0902 48.1494 70.2455 51.9531 69.5019 54.5175C69.1898 55.5877 68.8097 56.6369 68.3639 57.6586C66.2078 62.6749 62.5058 66.8714 57.7975 69.6362C53.7422 71.8309 49.1968 72.9621 44.5858 72.9239ZM26.7408 18.8479C26.1034 18.9443 25.5199 19.2611 25.0919 19.7432C24.2512 20.5147 23.4826 21.3612 22.7955 22.2722C22.6437 22.4993 22.4497 22.6951 22.224 22.8488C21.9473 23.002 21.6394 23.0902 21.3236 23.1068H21.1516C19.4976 23.3445 18.7794 24.9935 18.9463 26.4198C19.007 26.9257 19.4521 27.3809 19.9579 27.8311C22.2745 29.8543 21.8345 32.4187 21.4045 34.9124C21.3287 35.3676 21.2477 35.8279 21.182 36.2932C20.0793 44.1333 21.4045 52.3072 24.8137 58.7259C26.4229 61.7927 28.4673 64.6105 30.8834 67.0919C37.3476 73.4196 49.7551 73.0453 57.2866 68.7257C61.8099 66.0731 65.3655 62.0424 67.4332 57.2236C67.86 56.2356 68.2249 55.2221 68.5257 54.1888C69.2288 51.7609 70.0431 48.1696 68.9 45.0437C67.5394 41.2906 65.1317 38.013 63.1844 35.575C60.3313 31.971 56.7673 28.9925 52.7141 26.8245C49.1259 24.9693 45.1166 24.0803 41.0805 24.2449C38.2354 24.3019 35.4068 23.8001 32.7549 22.7679C31.4021 22.3021 30.1344 21.6187 29.0018 20.7447C28.708 20.4938 28.4418 20.2123 28.2077 19.905C27.712 19.2475 27.3731 18.8479 26.7408 18.8479Z" fill="#093F68"/>
<path d="M78.7333 36.4703C78.7333 36.4703 76.5432 44.7656 66.8417 52.3982C53.6249 62.8027 40.3373 52.6208 40.4891 41.7763C40.6408 30.9317 49.0322 26.2631 56.8722 31.0784C56.8722 31.0784 56.5283 17.8211 66.6242 15.9041C76.7202 13.9871 96.2596 29.6368 99.1579 35.9999C102.056 42.363 85.415 39.7985 78.7333 36.4703Z" fill="#FFBC0E"/>
<path d="M55.4459 57.2488C53.1219 57.2499 50.8294 56.7114 48.749 55.6758C43.4228 53.0455 39.9024 47.4614 39.9833 41.7862C40.0642 36.278 42.2443 31.9381 45.9721 29.8896C49.0727 28.185 52.8258 28.3165 56.3816 30.2234C56.4693 28.1311 56.8402 26.0604 57.4843 24.0677C59.0827 19.2322 62.2136 16.2479 66.5332 15.4336C69.1988 14.9278 75.2584 15.1706 85.8754 22.4593C92.3295 26.8902 98.1109 32.5046 99.6182 35.8126C100.387 37.497 99.8509 38.5187 99.2692 39.0802C97.423 40.8657 92.5166 40.4914 89.7549 40.0918C86.0704 39.6002 82.4688 38.6151 79.0469 37.1631C78.359 39.1864 75.5063 46.1969 67.1554 52.7825C63.4124 55.7415 59.3659 57.2488 55.4459 57.2488ZM50.6609 29.7126C49.1923 29.7034 47.7456 30.069 46.4577 30.7748C43.0586 32.6463 41.0708 36.6624 40.9949 41.8014C40.919 47.0922 44.2169 52.3071 49.1941 54.7704C54.5911 57.436 60.9086 56.4294 66.5282 52.0036C75.9666 44.5732 78.2225 36.4247 78.2478 36.3235C78.2664 36.2507 78.3011 36.1829 78.3492 36.1252C78.3973 36.0674 78.4577 36.0211 78.526 35.9897C78.5939 35.9573 78.6682 35.9405 78.7435 35.9405C78.8187 35.9405 78.893 35.9573 78.9609 35.9897C84.1708 38.5845 96.0522 40.7544 98.5661 38.3214C98.7583 38.1394 99.3299 37.588 98.6976 36.2021C97.2561 33.0408 91.6163 27.6034 85.3038 23.2635C77.7672 18.1194 70.9945 15.6207 66.7001 16.425C57.1505 18.2307 57.3528 30.9518 57.3578 31.0934C57.36 31.1843 57.3377 31.274 57.2932 31.3532C57.2487 31.4324 57.1836 31.4982 57.1049 31.5436C57.028 31.588 56.9408 31.6114 56.852 31.6114C56.7632 31.6114 56.676 31.588 56.5991 31.5436C54.8269 30.3964 52.7715 29.7626 50.6609 29.7126Z" fill="#093F68"/>
<path d="M78.7333 36.976C78.6864 36.9827 78.6387 36.9827 78.5917 36.976C78.528 36.9574 78.4685 36.9265 78.4167 36.8849C78.3649 36.8433 78.3218 36.7919 78.2899 36.7337C78.2253 36.616 78.2102 36.4776 78.2478 36.3488C78.2478 36.2982 79.7652 31.2149 79.224 27.4769C79.2147 27.4105 79.2186 27.3429 79.2354 27.278C79.2522 27.2131 79.2817 27.1521 79.3221 27.0985C79.3624 27.045 79.413 26.9999 79.4708 26.9659C79.5286 26.9319 79.5926 26.9096 79.659 26.9003C79.7254 26.891 79.793 26.8949 79.8579 26.9117C79.9229 26.9285 79.9838 26.958 80.0374 26.9984C80.0909 27.0388 80.136 27.0893 80.17 27.1471C80.204 27.2049 80.2263 27.2689 80.2356 27.3353C80.7869 31.2907 79.2948 36.4399 79.224 36.6371C79.1887 36.7383 79.1221 36.8257 79.0339 36.8866C78.9457 36.9475 78.8405 36.9788 78.7333 36.976Z" fill="#093F68"/>
<path d="M84.272 41.5283L83.0024 46.9708L73.9433 85.8372H24.1009L15.0469 46.9708L13.7773 41.5283H84.272Z" fill="#68E1FD"/>
<path d="M73.9435 86.3429H24.101C23.9848 86.346 23.8711 86.309 23.7789 86.2381C23.6868 86.1671 23.6219 86.0666 23.5952 85.9534L13.2868 41.6547C13.2694 41.5804 13.269 41.5032 13.2856 41.4287C13.3023 41.3542 13.3355 41.2845 13.3829 41.2247C13.4305 41.1661 13.4907 41.1188 13.559 41.0864C13.6272 41.054 13.7019 41.0373 13.7775 41.0376H84.2721C84.3476 41.0373 84.4223 41.054 84.4906 41.0864C84.5589 41.1188 84.619 41.1661 84.6666 41.2247C84.714 41.2845 84.7473 41.3542 84.7639 41.4287C84.7806 41.5032 84.7801 41.5804 84.7627 41.6547L74.4341 85.9686C74.4051 86.0764 74.3412 86.1716 74.2525 86.2393C74.1637 86.307 74.0551 86.3434 73.9435 86.3429ZM24.5057 85.3313H73.5388L83.655 42.034H14.4148L24.5057 85.3313Z" fill="#093F68"/>
<path d="M84.272 41.5283L83.0024 46.9708H15.0469L13.7773 41.5283H84.272Z" fill="white"/>
<path d="M83.0025 47.4765H15.0471C14.9308 47.4797 14.8171 47.4426 14.7249 47.3717C14.6328 47.3008 14.5679 47.2002 14.5412 47.0871L13.2868 41.6547C13.2694 41.5804 13.269 41.5032 13.2856 41.4287C13.3023 41.3542 13.3355 41.2845 13.3829 41.2247C13.4305 41.1661 13.4907 41.1188 13.559 41.0864C13.6272 41.054 13.7019 41.0373 13.7775 41.0376H84.2721C84.3476 41.0373 84.4223 41.054 84.4906 41.0864C84.5589 41.1188 84.619 41.1661 84.6666 41.2247C84.714 41.2845 84.7473 41.3542 84.7639 41.4287C84.7806 41.5032 84.7801 41.5804 84.7627 41.6547L83.4982 47.1023C83.4689 47.2109 83.4043 47.3067 83.3146 47.3745C83.2248 47.4422 83.115 47.4782 83.0025 47.4765ZM15.4466 46.4649H82.6029L83.6145 42.034H14.4148L15.4466 46.4649Z" fill="#093F68"/>
<path d="M23.7469 42.0341C23.6328 42.038 23.5206 42.0031 23.4288 41.9352C23.3369 41.8672 23.2708 41.7701 23.2411 41.6598C22.7335 39.7581 22.9686 37.7345 23.8987 35.9998C23.9278 35.9353 23.9702 35.8776 24.023 35.8305C24.0759 35.7834 24.138 35.7479 24.2054 35.7264C24.2728 35.7048 24.344 35.6976 24.4143 35.7052C24.4847 35.7129 24.5527 35.7352 24.6138 35.7708C24.675 35.8064 24.7281 35.8544 24.7695 35.9117C24.811 35.9691 24.84 36.0345 24.8545 36.1038C24.8691 36.173 24.869 36.2446 24.8543 36.3138C24.8395 36.383 24.8103 36.4483 24.7687 36.5056C23.988 38.0067 23.7916 39.744 24.2173 41.3816C24.235 41.4457 24.2398 41.5126 24.2316 41.5786C24.2234 41.6446 24.2022 41.7083 24.1693 41.7661C24.1364 41.8238 24.0925 41.8746 24.0399 41.9154C23.9874 41.9561 23.9274 41.9862 23.8633 42.0037C23.8255 42.0175 23.7866 42.0276 23.7469 42.0341Z" fill="#093F68"/>
<path d="M74.7578 39.3989C74.6726 39.3978 74.5891 39.3752 74.515 39.3332C74.3989 39.2682 74.3131 39.16 74.2762 39.0322C74.2393 38.9044 74.2542 38.7672 74.3177 38.6503C75.0287 37.3428 75.5871 35.9579 75.9819 34.5229C75.9978 34.4565 76.0267 34.3939 76.0668 34.3386C76.107 34.2833 76.1576 34.2365 76.2158 34.2008C76.2741 34.1651 76.3388 34.1412 76.4062 34.1306C76.4737 34.1199 76.5426 34.1226 76.6091 34.1385C76.6755 34.1545 76.7381 34.1833 76.7934 34.2235C76.8486 34.2636 76.8955 34.3143 76.9312 34.3725C76.9669 34.4307 76.9907 34.4954 77.0014 34.5629C77.0121 34.6304 77.0094 34.6993 76.9935 34.7657C76.5769 36.2861 75.9844 37.7527 75.2282 39.1359C75.1826 39.2196 75.1142 39.2887 75.0309 39.3353C74.9477 39.3818 74.853 39.4039 74.7578 39.3989Z" fill="#093F68"/>
</svg>
