<svg width="300" height="204" viewBox="0 0 300 204" fill="none" xmlns="http://www.w3.org/2000/svg">
<path d="M11.2589 173.755H156.93C157.927 173.755 158.915 173.952 159.837 174.334C160.759 174.716 161.596 175.275 162.302 175.981C163.008 176.686 163.567 177.524 163.949 178.446C164.331 179.367 164.527 180.355 164.527 181.353V183.94C164.527 186.355 164.052 188.747 163.127 190.978C162.203 193.21 160.848 195.237 159.141 196.945C157.433 198.653 155.405 200.007 153.174 200.932C150.942 201.856 148.551 202.332 146.136 202.332H22.0528C17.1844 202.317 12.5204 200.373 9.08297 196.926C5.64557 193.478 3.71531 188.808 3.71533 183.94V181.353C3.71528 179.348 4.50832 177.423 5.92148 176C7.33463 174.577 9.25325 173.77 11.2589 173.755Z" fill="#68E1FD"/>
<path d="M146.135 203.686H22.0527C16.8273 203.665 11.8229 201.576 8.13303 197.876C4.44318 194.176 2.36795 189.165 2.36084 183.94V181.367C2.36084 178.991 3.30357 176.713 4.98201 175.032C6.66046 173.351 8.93742 172.405 11.3129 172.401H156.929C159.304 172.408 161.579 173.356 163.256 175.036C164.934 176.716 165.878 178.992 165.881 181.367V183.94C165.874 189.175 163.792 194.193 160.09 197.895C156.389 201.596 151.37 203.679 146.135 203.686ZM11.2587 175.11C9.61104 175.128 8.0369 175.795 6.8781 176.966C5.71929 178.138 5.06938 179.719 5.06948 181.367V183.94C5.07307 188.457 6.86922 192.789 10.0636 195.983C13.2579 199.178 17.5893 200.974 22.1068 200.977H146.19C150.706 200.97 155.035 199.173 158.229 195.979C161.423 192.786 163.22 188.456 163.227 183.94V181.367C163.227 179.71 162.57 178.12 161.399 176.947C160.229 175.774 158.641 175.113 156.984 175.11H11.2587Z" fill="#093F68"/>
<path d="M158.027 127.397H12.5997C6.39158 127.397 1.35889 132.43 1.35889 138.638V139.329C1.35889 145.537 6.39158 150.57 12.5997 150.57H158.027C164.235 150.57 169.268 145.537 169.268 139.329V138.638C169.268 132.43 164.235 127.397 158.027 127.397Z" fill="#AD7972"/>
<path d="M158.027 151.938H12.5996C9.26022 151.934 6.05867 150.606 3.6974 148.245C1.33612 145.883 0.00797945 142.682 0.00439453 139.342V138.638C0.00797945 135.299 1.33612 132.097 3.6974 129.736C6.05867 127.375 9.26022 126.047 12.5996 126.043H158.027C161.366 126.047 164.567 127.375 166.929 129.736C169.29 132.097 170.618 135.299 170.622 138.638V139.342C170.618 142.682 169.29 145.883 166.929 148.245C164.567 150.606 161.366 151.934 158.027 151.938ZM12.5996 128.752C9.97859 128.755 7.466 129.798 5.61269 131.651C3.75938 133.505 2.71662 136.017 2.71304 138.638V139.342C2.71304 140.641 2.96876 141.926 3.4656 143.126C3.96245 144.325 4.69068 145.415 5.60873 146.333C6.52678 147.251 7.61667 147.98 8.81616 148.476C10.0156 148.973 11.3012 149.229 12.5996 149.229H158.027C159.325 149.229 160.61 148.973 161.81 148.476C163.009 147.98 164.099 147.251 165.017 146.333C165.935 145.415 166.664 144.325 167.16 143.126C167.657 141.926 167.913 140.641 167.913 139.342V138.638C167.909 136.017 166.867 133.505 165.013 131.651C163.16 129.798 160.647 128.755 158.027 128.752H12.5996Z" fill="#093F68"/>
<path d="M158.027 150.583H12.6134C6.40527 150.583 1.37256 155.616 1.37256 161.824V162.528C1.37256 168.736 6.40527 173.769 12.6134 173.769H158.027C164.235 173.769 169.268 168.736 169.268 162.528V161.824C169.268 155.616 164.235 150.583 158.027 150.583Z" fill="#AD7972"/>
<path d="M158.027 175.124H12.5862C9.25041 175.116 6.05373 173.786 3.69753 171.425C1.34133 169.064 0.0180587 165.864 0.0180664 162.528V161.824C0.0180587 158.488 1.34133 155.289 3.69753 152.928C6.05373 150.566 9.25041 149.236 12.5862 149.229H158.027C161.366 149.233 164.568 150.561 166.929 152.922C169.29 155.283 170.618 158.485 170.622 161.824V162.528C170.618 165.868 169.29 169.069 166.929 171.431C164.568 173.792 161.366 175.12 158.027 175.124ZM12.5862 151.938C9.96879 151.945 7.46106 152.99 5.61283 154.843C3.7646 156.696 2.7267 159.207 2.72671 161.824V162.528C2.7267 165.146 3.7646 167.656 5.61283 169.51C7.46106 171.363 9.96879 172.408 12.5862 172.415H158.027C160.646 172.408 163.157 171.364 165.01 169.511C166.862 167.659 167.906 165.148 167.913 162.528V161.824C167.91 159.203 166.867 156.691 165.013 154.837C163.16 152.984 160.648 151.941 158.027 151.938H12.5862Z" fill="#093F68"/>
<path d="M155.195 150.583C155.28 151.806 155.179 153.034 154.897 154.226C152.568 164.357 138.849 169.842 124.249 166.415C113.713 164.005 105.614 157.653 102.783 150.516L155.195 150.583Z" fill="#F56132"/>
<path d="M132.714 168.88C129.765 168.874 126.826 168.538 123.952 167.878C113.239 165.426 104.653 159.021 101.524 151.152C101.444 150.946 101.416 150.723 101.442 150.504C101.468 150.284 101.547 150.074 101.673 149.892C101.796 149.711 101.961 149.561 102.155 149.457C102.348 149.354 102.564 149.298 102.784 149.297H155.196C155.539 149.296 155.87 149.425 156.121 149.659C156.373 149.893 156.526 150.214 156.55 150.556C156.645 151.919 156.536 153.288 156.225 154.619C154.221 163.26 144.442 168.88 132.714 168.88ZM104.923 152.005C108.269 158.127 115.758 163.219 124.548 165.237C138.402 168.42 151.431 163.368 153.584 153.996C153.734 153.342 153.825 152.676 153.855 152.005H104.923Z" fill="#093F68"/>
<path d="M19.0591 150.583L47.4185 185.619L98.2733 150.583H19.0591Z" fill="#FFBC0E"/>
<path d="M47.4192 186.974C47.2168 186.975 47.0169 186.93 46.8341 186.843C46.6513 186.756 46.4903 186.63 46.3628 186.473L18.0033 151.436C17.8435 151.237 17.7434 150.996 17.7147 150.742C17.6859 150.488 17.7296 150.231 17.8408 150.001C17.9506 149.77 18.1232 149.576 18.3389 149.439C18.5545 149.303 18.8044 149.23 19.0597 149.229H98.2739C98.5607 149.232 98.8389 149.327 99.0686 149.499C99.2982 149.671 99.4674 149.911 99.5517 150.185C99.6361 150.459 99.6312 150.753 99.5379 151.024C99.4445 151.295 99.2675 151.53 99.0323 151.694L48.1911 186.744C47.9631 186.897 47.6939 186.977 47.4192 186.974ZM21.9038 151.938L47.6358 183.791L93.8724 151.938H21.9038Z" fill="#093F68"/>
<path d="M37.939 139.207C40.1341 143.505 43.4648 147.119 47.5694 149.657C51.674 152.195 56.3956 153.559 61.2212 153.603C66.0469 153.646 70.7921 152.366 74.9416 149.902C79.091 147.438 82.486 143.884 84.7578 139.627C85.9898 141.533 87.7221 143.064 89.7655 144.052C91.8088 145.04 94.0844 145.447 96.3435 145.229C98.6027 145.011 100.758 144.176 102.575 142.815C104.392 141.455 105.799 139.621 106.644 137.514C112.819 140.724 119.686 143.107 126.633 142.552C133.581 141.997 140.556 137.947 142.885 131.487C145.255 135.469 151.296 136.282 155.25 133.817C159.205 131.352 161.155 126.503 161.114 121.885C160.993 109.574 149.156 100.473 137.4 96.3427C121.054 90.6004 103.217 90.6546 85.9361 92.0902C65.0119 93.8237 43.3563 97.7919 25.1813 108.721C17.4075 113.394 5.40821 120.287 10.7171 130.566C15.6604 140.033 28.54 144.665 37.939 139.207Z" fill="#70CC40"/>
<path d="M61.4361 154.957H61.2059C56.3768 154.863 51.6523 153.534 47.4823 151.097C43.3123 148.66 39.8356 145.196 37.3834 141.035C32.8776 143.139 27.749 143.487 23.0005 142.01C20.1469 141.202 17.486 139.826 15.1774 137.964C12.8688 136.102 10.96 133.793 9.56563 131.176C3.79622 120.002 16.4591 112.405 24.0298 107.935L24.5444 107.624C44.8592 95.4351 69.237 92.1847 85.8951 90.8033C100.793 89.5574 120.254 88.9344 137.915 95.1372C149.196 99.0918 162.414 108.491 162.536 121.939C162.536 127.505 160.098 132.516 156.035 135.035C153.482 136.558 150.432 137.016 147.544 136.308C145.957 135.941 144.489 135.177 143.278 134.087C140.285 139.505 133.933 143.392 126.755 143.974C120.837 144.448 114.458 142.958 107.293 139.423C106.257 141.378 104.764 143.054 102.94 144.307C101.117 145.56 99.0175 146.353 96.8211 146.619C94.6247 146.885 92.3965 146.616 90.3266 145.835C88.2567 145.053 86.4064 143.783 84.9336 142.132C82.3705 146.034 78.8861 149.245 74.7882 151.482C70.6902 153.719 66.1046 154.913 61.4361 154.957ZM37.9386 137.852C38.0692 137.839 38.2008 137.839 38.3314 137.852C38.5065 137.907 38.6689 137.996 38.8085 138.114C38.9482 138.233 39.0623 138.379 39.144 138.543C41.2646 142.589 44.4337 145.991 48.3197 148.393C52.2056 150.794 56.6656 152.107 61.233 152.195H61.4361C65.9745 152.168 70.4235 150.93 74.3234 148.609C78.2234 146.287 81.4327 142.967 83.6199 138.99C83.7317 138.78 83.897 138.603 84.0991 138.477C84.3012 138.351 84.533 138.28 84.7711 138.272C85.0068 138.263 85.2407 138.316 85.4497 138.425C85.6588 138.535 85.8356 138.697 85.9628 138.895C87.0821 140.574 88.6313 141.922 90.4488 142.799C92.2663 143.675 94.2856 144.048 96.2963 143.879C98.3001 143.668 100.209 142.918 101.821 141.709C103.433 140.5 104.688 138.877 105.452 137.013C105.521 136.836 105.627 136.676 105.762 136.543C105.898 136.41 106.059 136.307 106.237 136.241C106.41 136.164 106.597 136.125 106.786 136.125C106.974 136.125 107.161 136.164 107.334 136.241C114.553 139.992 120.877 141.658 126.592 141.13C133.608 140.575 139.702 136.485 141.747 130.945C141.838 130.708 141.993 130.502 142.196 130.349C142.398 130.196 142.639 130.103 142.892 130.08C143.144 130.057 143.398 130.106 143.625 130.221C143.851 130.336 144.04 130.512 144.172 130.729C144.628 131.444 145.222 132.062 145.92 132.546C146.617 133.03 147.404 133.369 148.235 133.546C150.411 134.085 152.713 133.745 154.64 132.598C156.352 131.392 157.729 129.772 158.644 127.889C159.558 126.006 159.979 123.921 159.868 121.831C159.76 109.791 147.503 101.232 137.061 97.5478C119.875 91.5211 100.833 92.1306 86.1524 93.363C69.8058 94.7173 45.7802 97.9135 25.98 109.804L25.4653 110.116C15.9851 115.831 7.77793 121.641 12.0305 129.875C13.2656 132.16 14.9438 134.175 16.9669 135.802C18.99 137.43 21.3175 138.638 23.8131 139.356C26.0431 140.068 28.3956 140.315 30.7251 140.082C33.0545 139.849 35.3114 139.141 37.3563 138.001C37.5368 137.909 37.7358 137.858 37.9386 137.852Z" fill="#093F68"/>
<path d="M10.6486 127.397C9.23756 127.395 7.84545 127.073 6.57757 126.453C5.30969 125.834 4.19925 124.935 3.33027 123.823C2.46129 122.711 1.85653 121.417 1.56175 120.037C1.26697 118.657 1.28989 117.228 1.62878 115.858C8.90148 86.28 43.6127 63.8796 85.3122 63.8796C127.012 63.8796 161.723 86.2665 168.942 115.858C169.28 117.228 169.303 118.657 169.009 120.037C168.714 121.417 168.109 122.711 167.24 123.823C166.371 124.935 165.261 125.834 163.993 126.453C162.725 127.073 161.333 127.395 159.922 127.397H10.6486Z" fill="#68E1FD"/>
<path d="M159.977 128.752H10.6492C9.03187 128.752 7.43569 128.384 5.98182 127.676C4.52796 126.968 3.25464 125.937 2.25856 124.663C1.26247 123.389 0.56981 121.904 0.233165 120.323C-0.10348 118.741 -0.075258 117.103 0.315692 115.534C7.8728 84.8176 43.6539 62.5119 85.3128 62.5119C126.972 62.5119 162.753 84.8176 170.31 115.534C170.701 117.103 170.729 118.741 170.393 120.323C170.056 121.904 169.363 123.389 168.367 124.663C167.371 125.937 166.098 126.968 164.644 127.676C163.19 128.384 161.594 128.752 159.977 128.752ZM85.3128 65.2205C44.8457 65.2205 10.2022 86.6594 2.94308 116.184C2.65995 117.35 2.64572 118.566 2.90146 119.739C3.15719 120.913 3.6762 122.012 4.41928 122.955C5.1552 123.905 6.09993 124.673 7.18027 125.199C8.2606 125.725 9.44756 125.995 10.6492 125.989H159.977C161.178 125.995 162.365 125.725 163.445 125.199C164.526 124.673 165.47 123.905 166.206 122.955C166.949 122.012 167.468 120.913 167.724 119.739C167.98 118.566 167.966 117.35 167.683 116.184C160.423 86.6594 125.78 65.2205 85.3128 65.2205Z" fill="#093F68"/>
<path d="M58.6597 92.632C58.398 92.6314 58.1421 92.555 57.923 92.412C57.7038 92.2691 57.5307 92.0656 57.4247 91.8264C57.3187 91.5871 57.2843 91.3223 57.3256 91.0639C57.3669 90.8055 57.4822 90.5646 57.6575 90.3703L67.0294 79.915C67.2701 79.6474 67.6072 79.4863 67.9666 79.4673C68.326 79.4482 68.6782 79.5727 68.9458 79.8134C69.2134 80.0541 69.3744 80.3912 69.3935 80.7505C69.4125 81.1099 69.288 81.4622 69.0474 81.7298L59.6755 92.1851C59.5473 92.3271 59.3905 92.4404 59.2155 92.5174C59.0404 92.5944 58.851 92.6335 58.6597 92.632Z" fill="#093F68"/>
<path d="M114.323 96.9929C114.006 96.9935 113.699 96.8833 113.456 96.6814L101.917 87.0928C101.64 86.8629 101.466 86.5326 101.433 86.1744C101.4 85.8163 101.511 85.4598 101.741 85.1832C101.971 84.9066 102.301 84.7327 102.659 84.6997C103.017 84.6667 103.374 84.7772 103.65 85.0071L115.189 94.5957C115.326 94.7094 115.44 94.849 115.523 95.0066C115.606 95.1642 115.657 95.3366 115.674 95.514C115.69 95.6914 115.671 95.8702 115.618 96.0403C115.565 96.2104 115.479 96.3684 115.365 96.5053C115.238 96.6582 115.079 96.7811 114.898 96.8654C114.718 96.9497 114.522 96.9932 114.323 96.9929Z" fill="#093F68"/>
<path d="M72.5957 110.861C72.3174 110.861 72.0459 110.775 71.8181 110.615C71.5903 110.455 71.4173 110.229 71.3227 109.967C71.2626 109.799 71.2363 109.621 71.2454 109.443C71.2544 109.265 71.2986 109.09 71.3754 108.929C71.4522 108.768 71.56 108.623 71.6927 108.504C71.8255 108.385 71.9805 108.293 72.1488 108.234L84.8523 103.67C85.1871 103.559 85.5518 103.584 85.8689 103.738C86.186 103.892 86.4304 104.164 86.5504 104.495C86.6703 104.827 86.6562 105.192 86.5111 105.513C86.366 105.835 86.1013 106.087 85.7733 106.216L73.0562 110.78C72.9086 110.833 72.7528 110.861 72.5957 110.861Z" fill="#093F68"/>
<path d="M48.1505 117.416C47.9092 117.414 47.6727 117.348 47.4655 117.224C47.2584 117.1 47.0881 116.923 46.9723 116.712L42.0832 107.909C41.9036 107.594 41.8562 107.222 41.9514 106.872C42.0467 106.523 42.2767 106.226 42.591 106.046C42.9053 105.867 43.2781 105.819 43.6273 105.915C43.9765 106.01 44.2736 106.24 44.4532 106.554L49.3423 115.357C49.4286 115.513 49.4835 115.684 49.5036 115.861C49.5238 116.038 49.509 116.217 49.4599 116.388C49.4109 116.559 49.3286 116.719 49.2178 116.858C49.107 116.997 48.9698 117.113 48.8141 117.199C48.6157 117.328 48.3868 117.403 48.1505 117.416Z" fill="#093F68"/>
<path d="M132.254 108.586C131.965 108.588 131.683 108.498 131.449 108.328C131.214 108.158 131.041 107.918 130.953 107.643C130.865 107.367 130.868 107.071 130.961 106.797C131.053 106.523 131.231 106.286 131.468 106.121L140.597 99.6067C140.888 99.3997 141.249 99.3162 141.602 99.3746C141.955 99.4329 142.27 99.6283 142.479 99.9181C142.584 100.063 142.659 100.227 142.7 100.401C142.74 100.575 142.747 100.755 142.718 100.931C142.689 101.107 142.625 101.276 142.531 101.428C142.436 101.579 142.313 101.711 142.167 101.814L133.039 108.328C132.811 108.494 132.536 108.584 132.254 108.586Z" fill="#093F68"/>
<path d="M28.5942 94.8936C28.2855 94.8922 27.9865 94.7854 27.7468 94.5907C27.5071 94.3961 27.3411 94.1255 27.2763 93.8236C27.2115 93.5217 27.2517 93.2067 27.3905 92.9309C27.5292 92.6551 27.758 92.4349 28.0389 92.3069L38.1422 87.7428C38.3057 87.6566 38.4852 87.6048 38.6695 87.5906C38.8539 87.5764 39.0392 87.6001 39.214 87.6603C39.3888 87.7204 39.5495 87.8157 39.6861 87.9403C39.8227 88.0648 39.9324 88.2161 40.0083 88.3846C40.0843 88.5532 40.1249 88.7355 40.1277 88.9204C40.1305 89.1053 40.0955 89.2887 40.0247 89.4595C39.9539 89.6303 39.8489 89.7848 39.7161 89.9135C39.5833 90.0422 39.4256 90.1423 39.2527 90.2077L29.1495 94.7717C28.9751 94.8512 28.7858 94.8927 28.5942 94.8936Z" fill="#093F68"/>
<path d="M117.261 115.425H106.832C106.473 115.425 106.129 115.282 105.875 115.028C105.621 114.774 105.478 114.43 105.478 114.071C105.478 113.712 105.621 113.367 105.875 113.113C106.129 112.859 106.473 112.716 106.832 112.716H117.261C117.62 112.716 117.964 112.859 118.218 113.113C118.472 113.367 118.615 113.712 118.615 114.071C118.615 114.43 118.472 114.774 118.218 115.028C117.964 115.282 117.62 115.425 117.261 115.425Z" fill="#093F68"/>
<path d="M126.728 84.9123C126.485 84.9123 126.246 84.8468 126.037 84.7227L116.557 79.1836C116.403 79.0939 116.268 78.9748 116.16 78.833C116.052 78.6912 115.974 78.5294 115.928 78.357C115.883 78.1847 115.872 78.0051 115.896 77.8285C115.921 77.6519 115.98 77.4819 116.07 77.3281C116.159 77.1741 116.278 77.0392 116.42 76.9313C116.562 76.8234 116.724 76.7445 116.896 76.6992C117.068 76.6539 117.248 76.6431 117.425 76.6673C117.601 76.6916 117.771 76.7505 117.925 76.8406L127.405 82.3798C127.666 82.5276 127.871 82.7578 127.987 83.0344C128.103 83.3109 128.123 83.6182 128.046 83.9079C127.968 84.1976 127.797 84.4534 127.559 84.6351C127.32 84.8169 127.028 84.9144 126.728 84.9123Z" fill="#093F68"/>
<path d="M85.3128 83.1518C84.9966 83.1453 84.6928 83.0284 84.4538 82.8214C84.2148 82.6143 84.0558 82.3302 84.0044 82.0182C83.9529 81.7062 84.0123 81.3861 84.1721 81.1133C84.3319 80.8405 84.5821 80.6321 84.8794 80.5244L93.0053 77.8158C93.343 77.7035 93.7114 77.7286 94.0307 77.8857C94.35 78.0429 94.5947 78.3194 94.7118 78.6555C94.8282 78.9949 94.8052 79.3667 94.6478 79.6892C94.4904 80.0117 94.2114 80.2585 93.8721 80.3755L85.7462 83.1518C85.603 83.1789 85.456 83.1789 85.3128 83.1518Z" fill="#093F68"/>
<path d="M19.0592 112.987C18.8025 112.986 18.5516 112.911 18.3358 112.772C18.12 112.633 17.9481 112.435 17.8403 112.202C17.6868 111.879 17.6676 111.508 17.7869 111.17C17.9061 110.832 18.1542 110.556 18.4768 110.401L24.6525 107.489C24.9776 107.334 25.3507 107.316 25.6898 107.436C26.0288 107.557 26.3061 107.807 26.4605 108.132C26.615 108.457 26.634 108.83 26.5133 109.169C26.3927 109.509 26.1423 109.786 25.8172 109.94L19.6415 112.852C19.4599 112.94 19.261 112.986 19.0592 112.987Z" fill="#093F68"/>
<path d="M146.433 115.425C146.118 115.432 145.81 115.329 145.563 115.134C145.316 114.938 145.145 114.663 145.079 114.355C145.041 114.181 145.038 114.001 145.07 113.825C145.102 113.65 145.168 113.482 145.265 113.333C145.362 113.183 145.488 113.054 145.634 112.953C145.781 112.852 145.947 112.78 146.121 112.743L157.85 110.306C158.2 110.233 158.564 110.303 158.864 110.498C159.163 110.693 159.373 110.999 159.448 111.349C159.486 111.523 159.489 111.703 159.457 111.878C159.425 112.054 159.358 112.221 159.261 112.371C159.164 112.521 159.039 112.65 158.892 112.751C158.745 112.852 158.58 112.923 158.405 112.96L146.677 115.398L146.433 115.425Z" fill="#093F68"/>
<path d="M85.3128 70.7056C84.9536 70.7056 84.6092 70.5629 84.3552 70.3089C84.1012 70.0549 83.9585 69.7104 83.9585 69.3513V24.7264C83.9585 24.3672 84.1012 24.0227 84.3552 23.7687C84.6092 23.5148 84.9536 23.3721 85.3128 23.3721C85.672 23.3721 86.0165 23.5148 86.2705 23.7687C86.5245 24.0227 86.6671 24.3672 86.6671 24.7264V69.419C86.6497 69.7663 86.4994 70.0936 86.2473 70.3331C85.9952 70.5727 85.6606 70.706 85.3128 70.7056Z" fill="#093F68"/>
<path d="M85.3132 45.9619V30.1028H59.8926L85.3132 45.9619Z" fill="#68E1FD"/>
<path d="M85.3126 47.3163C85.0578 47.3131 84.809 47.238 84.5949 47.0996L59.242 31.2541C58.9913 31.0987 58.7982 30.8658 58.692 30.5907C58.5858 30.3156 58.5722 30.0134 58.6534 29.7299C58.7347 29.4464 58.9062 29.1972 59.142 29.0201C59.3777 28.8429 59.6649 28.7476 59.9598 28.7486H85.3804C85.7396 28.7486 86.084 28.8913 86.338 29.1452C86.592 29.3992 86.7347 29.7437 86.7347 30.1029V45.962C86.7343 46.202 86.6701 46.4375 86.5487 46.6446C86.4274 46.8516 86.2532 47.0227 86.044 47.1402C85.8204 47.2635 85.5678 47.3243 85.3126 47.3163ZM64.6593 31.4572L83.9989 43.5107V31.4572H64.6593Z" fill="#093F68"/>
<path d="M204.357 49.8082C203.826 49.8041 203.308 49.6439 202.868 49.3477C201.811 48.6435 200.904 47.9934 189.934 6.52414L164.093 18.4557C163.448 18.7173 162.726 18.72 162.078 18.4634C161.431 18.2067 160.907 17.7103 160.616 17.0773C160.324 16.4444 160.288 15.7236 160.515 15.0648C160.741 14.4059 161.213 13.8596 161.832 13.5395L190.611 0.253625C190.969 0.0865658 191.36 0 191.755 0C192.151 0 192.541 0.0865658 192.9 0.253625C193.26 0.42096 193.579 0.665407 193.834 0.969657C194.089 1.27391 194.274 1.63052 194.376 2.01425C198.439 17.3722 205.211 42.4678 206.565 45.515C206.857 45.9203 207.032 46.3985 207.069 46.8967C207.107 47.395 207.005 47.8939 206.777 48.3382C206.548 48.7826 206.202 49.1551 205.775 49.4145C205.347 49.6739 204.857 49.8102 204.357 49.8082Z" fill="#093F68"/>
<path d="M174.102 41.5739H291.847C293.643 41.5739 295.365 42.2873 296.635 43.5573C297.905 44.8272 298.619 46.5496 298.619 48.3455V63.0263H167.358V48.3455C167.358 46.5543 168.068 44.836 169.332 43.5668C170.596 42.2977 172.311 41.5811 174.102 41.5739Z" fill="white"/>
<path d="M298.605 64.3943H167.358C166.999 64.3943 166.654 64.2516 166.4 63.9976C166.146 63.7436 166.003 63.3992 166.003 63.04V48.3456C166.003 46.1905 166.86 44.1236 168.383 42.5997C169.907 41.0758 171.974 40.2197 174.129 40.2197H291.874C294.029 40.2197 296.096 41.0758 297.62 42.5997C299.144 44.1236 300 46.1905 300 48.3456V63.0129C300.004 63.1965 299.97 63.3789 299.901 63.5491C299.832 63.7193 299.729 63.8737 299.599 64.0029C299.468 64.1321 299.313 64.2334 299.142 64.3007C298.971 64.368 298.788 64.3998 298.605 64.3943ZM168.712 61.6856H297.251V48.3456C297.251 46.9088 296.68 45.5309 295.664 44.515C294.648 43.4991 293.27 42.9283 291.833 42.9283H174.102C172.665 42.9283 171.288 43.4991 170.272 44.515C169.256 45.5309 168.685 46.9088 168.685 48.3456L168.712 61.6856Z" fill="#093F68"/>
<path d="M273.969 202.332H191.979L175.388 63.0398H290.573L273.969 202.332Z" fill="#68E1FD"/>
<path d="M273.969 203.686H191.965C191.633 203.688 191.311 203.568 191.061 203.349C190.811 203.129 190.651 202.825 190.611 202.494L174.048 63.243C174.024 63.054 174.041 62.8622 174.097 62.6802C174.153 62.4982 174.247 62.33 174.373 62.1867C174.5 62.0422 174.656 61.9264 174.831 61.847C175.006 61.7676 175.196 61.7264 175.388 61.7262H290.573C290.766 61.7248 290.956 61.7644 291.132 61.8424C291.308 61.9204 291.465 62.035 291.593 62.1785C291.722 62.322 291.818 62.4912 291.875 62.6747C291.933 62.8583 291.951 63.052 291.928 63.243L275.324 202.494C275.284 202.825 275.124 203.129 274.874 203.349C274.624 203.568 274.302 203.688 273.969 203.686ZM193.184 200.977H272.778L289.029 64.3942H176.919L193.184 200.977Z" fill="#093F68"/>
<path d="M188.837 31.6603H277.112C277.848 31.6603 278.577 31.8053 279.258 32.0871C279.938 32.3689 280.556 32.7819 281.077 33.3025C281.597 33.8232 282.01 34.4413 282.292 35.1215C282.574 35.8018 282.719 36.5309 282.719 37.2672V41.5739H183.23V37.2401C183.238 35.7578 183.832 34.3386 184.882 33.2929C185.933 32.2473 187.355 31.6603 188.837 31.6603Z" fill="white"/>
<path d="M282.705 42.9283H183.23C182.871 42.9283 182.527 42.7857 182.273 42.5317C182.019 42.2777 181.876 41.9332 181.876 41.574V37.2402C181.876 35.3927 182.609 33.6207 183.914 32.3131C185.219 31.0055 186.99 30.269 188.837 30.2654H277.112C278.959 30.269 280.73 31.0055 282.035 32.3131C283.34 33.6207 284.073 35.3927 284.073 37.2402V41.574C284.073 41.753 284.038 41.9302 283.969 42.0954C283.9 42.2606 283.799 42.4105 283.672 42.5365C283.544 42.6624 283.393 42.7619 283.228 42.8292C283.062 42.8964 282.884 42.9301 282.705 42.9283ZM184.571 40.2197H281.351V37.2402C281.351 36.1111 280.903 35.028 280.106 34.2284C279.309 33.4287 278.227 32.9777 277.098 32.9741H188.837C187.708 32.9777 186.626 33.4287 185.829 34.2284C185.032 35.028 184.585 36.1111 184.585 37.2402L184.571 40.2197Z" fill="#093F68"/>
<path d="M232.975 150.163C248.779 150.163 261.592 137.351 261.592 121.547C261.592 105.742 248.779 92.9299 232.975 92.9299C217.17 92.9299 204.358 105.742 204.358 121.547C204.358 137.351 217.17 150.163 232.975 150.163Z" fill="white"/>
<path d="M232.975 151.504C227.046 151.504 221.251 149.746 216.322 146.452C211.393 143.158 207.552 138.477 205.284 132.999C203.016 127.522 202.423 121.495 203.58 115.681C204.738 109.867 207.594 104.527 211.787 100.336C215.979 96.1446 221.321 93.2912 227.136 92.1363C232.95 90.9813 238.977 91.5768 244.453 93.8473C249.93 96.1178 254.61 99.9614 257.901 104.892C261.193 109.822 262.948 115.618 262.946 121.547C262.938 129.492 259.778 137.11 254.159 142.727C248.539 148.344 240.92 151.501 232.975 151.504ZM232.975 94.2842C227.583 94.2842 222.312 95.8831 217.828 98.8788C213.345 101.874 209.851 106.132 207.787 111.114C205.724 116.095 205.184 121.577 206.236 126.865C207.288 132.154 209.884 137.011 213.697 140.824C217.51 144.637 222.368 147.233 227.656 148.285C232.944 149.337 238.426 148.797 243.407 146.734C248.389 144.67 252.647 141.176 255.642 136.693C258.638 132.21 260.237 126.939 260.237 121.547C260.233 114.317 257.36 107.385 252.248 102.273C247.136 97.1612 240.204 94.2878 232.975 94.2842Z" fill="#093F68"/>
</svg>
