<svg width="368" height="41" viewBox="0 0 368 41" fill="none" xmlns="http://www.w3.org/2000/svg">
<path d="M34.0469 20.3459C34.0078 20.8146 34.0469 21.2639 34.1641 21.6935C34.2812 22.1232 34.418 22.5529 34.5742 22.9826C34.7695 23.3732 34.9453 23.7834 35.1016 24.2131C35.2578 24.6428 35.375 25.0724 35.4531 25.5021C35.5312 26.049 35.5312 26.6545 35.4531 27.3185C35.375 27.9435 35.2383 28.5685 35.043 29.1935C34.8477 29.7795 34.5938 30.3264 34.2812 30.8342C33.9688 31.3029 33.5977 31.6545 33.168 31.8889C32.6211 32.592 31.957 33.1389 31.1758 33.5295C30.3945 33.9201 29.6719 34.3889 29.0078 34.9357C28.5781 35.2092 28.0898 35.4045 27.543 35.5217C27.0352 35.6389 26.5078 35.756 25.9609 35.8732C25.5312 36.1076 25.0234 36.3615 24.4375 36.6349C23.8516 36.8693 23.2461 37.1037 22.6211 37.3381C21.9961 37.5334 21.3711 37.6896 20.7461 37.8068C20.1211 37.8849 19.5742 37.9045 19.1055 37.8654C17.9336 38.2951 16.7812 38.5685 15.6484 38.6857C14.5547 38.842 13.2656 38.7639 11.7812 38.4514C10.375 38.6467 9.06641 38.5881 7.85547 38.2756C6.68359 37.9631 5.62891 37.4748 4.69141 36.8107C3.79297 36.1076 2.99219 35.2873 2.28906 34.3498C1.625 33.3732 1.07812 32.3576 0.648438 31.3029C0.335938 29.0764 0.414062 27.0646 0.882812 25.2678C1.35156 23.4318 2.01562 21.7521 2.875 20.2287C3.77344 18.6662 4.78906 17.2404 5.92188 15.9514C7.05469 14.6232 8.14844 13.3342 9.20312 12.0842C9.4375 12.1623 9.61328 12.1623 9.73047 12.0842C9.88672 11.967 10.0234 11.8303 10.1406 11.674C10.2578 11.4787 10.375 11.3029 10.4922 11.1467C10.6484 10.9904 10.8242 10.8928 11.0195 10.8537C11.293 10.2678 11.6836 9.83807 12.1914 9.56464C12.7383 9.25214 13.168 8.82245 13.4805 8.27557C13.832 8.19745 14.125 8.08026 14.3594 7.92401C14.5938 7.76776 14.8086 7.59198 15.0039 7.39667C15.2383 7.20135 15.4727 7.02557 15.707 6.86932C15.9414 6.67401 16.2148 6.53729 16.5273 6.45917V5.81464C17.2305 5.50214 17.7383 5.15057 18.0508 4.75995C18.4023 4.33026 18.8125 3.82245 19.2812 3.23651C19.6328 3.19745 19.9062 3.17792 20.1016 3.17792C20.3359 3.17792 20.668 3.13885 21.0977 3.06073C21.4102 2.51385 21.6836 2.1037 21.918 1.83026C22.1914 1.55682 22.582 1.26385 23.0898 0.951355C23.5586 1.18573 24.0664 1.34198 24.6133 1.4201C25.1992 1.49823 25.707 1.75214 26.1367 2.18182C26.1758 2.57245 26.293 2.88495 26.4883 3.11932C26.6836 3.31464 26.8984 3.50995 27.1328 3.70526C27.3672 3.86151 27.582 4.03729 27.7773 4.2326C28.0117 4.42792 28.168 4.70135 28.2461 5.05292C28.4023 5.09198 28.5 5.07245 28.5391 4.99432C28.6172 4.9162 28.7344 4.89667 28.8906 4.93573C29.0078 5.4826 29.1445 5.8537 29.3008 6.04901C29.457 6.20526 29.6133 6.53729 29.7695 7.0451C29.5742 7.43573 29.418 7.84589 29.3008 8.27557C29.2227 8.6662 28.9883 8.95917 28.5977 9.15448C28.5586 9.42792 28.6367 9.58417 28.832 9.62323C29.0273 9.62323 29.1445 9.72089 29.1836 9.9162C29.2227 10.2678 29.1641 10.5217 29.0078 10.6779C29.9453 12.2014 30.7852 13.8224 31.5273 15.5412C32.2695 17.2209 33.1094 18.8224 34.0469 20.3459ZM26.7227 25.9123C26.8789 25.4826 27.0742 25.131 27.3086 24.8576C27.582 24.5842 27.7383 24.174 27.7773 23.6271C27.582 23.3146 27.4648 23.0803 27.4258 22.924C27.3867 22.7287 27.3672 22.4357 27.3672 22.0451C26.5078 20.8342 25.7656 19.5451 25.1406 18.1779C24.5156 16.7717 23.8125 15.4631 23.0312 14.2521C22.9531 14.4084 22.8164 14.5646 22.6211 14.7209C22.4258 14.8771 22.2109 14.8381 21.9766 14.6037C21.8984 14.9162 21.7617 15.1506 21.5664 15.3068C21.3711 15.424 21.1562 15.4826 20.9219 15.4826C20.6875 15.4435 20.4336 15.3849 20.1602 15.3068C19.9258 15.1896 19.7109 15.0529 19.5156 14.8967C18.3828 15.7951 17.25 16.674 16.1172 17.5334C14.9844 18.3928 13.9688 19.3889 13.0703 20.5217C12.9141 20.5998 12.8164 20.6389 12.7773 20.6389C12.7383 20.5998 12.6211 20.6193 12.4258 20.6974C12.1133 21.4396 11.7227 22.1232 11.2539 22.7482C10.8242 23.3342 10.3945 23.9396 9.96484 24.5646C9.53516 25.1896 9.16406 25.8537 8.85156 26.5568C8.53906 27.2599 8.36328 28.0803 8.32422 29.0178C8.98828 29.5646 9.76953 29.8967 10.668 30.0139C11.5664 30.131 12.4844 30.1506 13.4219 30.0724C14.3984 29.9943 15.3359 29.8771 16.2344 29.7209C17.1719 29.5256 18.0312 29.4279 18.8125 29.4279C20.4531 29.0373 21.8594 28.5295 23.0312 27.9045C24.2031 27.2404 25.4336 26.5764 26.7227 25.9123Z" fill="black"/>
<path d="M66.5078 22.1037C66.4688 22.299 66.4297 22.4748 66.3906 22.631C66.3516 22.7482 66.3125 22.8654 66.2734 22.9826C66.2344 23.0998 66.2148 23.256 66.2148 23.4514C66.2148 23.6076 66.2148 23.8224 66.2148 24.0959C65.043 26.1662 63.5586 27.9045 61.7617 29.3107C60.0039 30.717 58.0508 31.967 55.9023 33.0607C53.793 34.1154 51.5859 35.092 49.2812 35.9904C46.9766 36.8498 44.7305 37.7873 42.543 38.8029C41.6055 38.5685 40.8828 38.1779 40.375 37.631C39.9062 37.0842 39.5352 36.4592 39.2617 35.756C39.0273 35.0139 38.8516 34.2131 38.7344 33.3537C38.6562 32.4553 38.5781 31.5373 38.5 30.5998C38.6172 30.1701 38.7734 29.8185 38.9688 29.5451C39.2031 29.2326 39.3203 28.8029 39.3203 28.256C39.6328 27.2404 39.9453 26.2443 40.2578 25.2678C40.5703 24.2912 40.7656 23.2951 40.8438 22.2795C40.9609 21.967 41.1758 21.7521 41.4883 21.6349C41.6836 19.7599 41.6836 17.8654 41.4883 15.9514C41.332 13.9982 41.0195 12.1818 40.5508 10.5021C40.5898 10.1115 40.6289 9.83807 40.668 9.68182C40.7461 9.48651 40.7461 9.34979 40.668 9.27167C40.6289 8.95917 40.7266 8.80292 40.9609 8.80292C41.2344 8.80292 41.5078 8.80292 41.7812 8.80292C41.7812 8.21698 41.6641 7.63104 41.4297 7.0451C41.2344 6.45917 41.0391 5.7951 40.8438 5.05292C41.1172 4.46698 41.293 3.90057 41.3711 3.3537C41.4492 2.76776 41.625 2.25995 41.8984 1.83026C44.0078 2.49432 46.0195 3.2951 47.9336 4.2326C49.8867 5.1701 51.8008 5.8537 53.6758 6.28339C55.082 7.29901 56.5273 8.31464 58.0117 9.33026C59.4961 10.3068 60.8438 11.4006 62.0547 12.6115C63.2656 13.7834 64.2812 15.131 65.1016 16.6545C65.9219 18.1779 66.3906 19.9943 66.5078 22.1037ZM52.6211 25.3264C53.4414 25.0139 54.2422 24.6818 55.0234 24.3303C55.8438 23.9787 56.5859 23.5881 57.25 23.1584C57.9531 22.6896 58.5781 22.1623 59.125 21.5764C59.6719 20.9904 60.1211 20.2873 60.4727 19.467C60.2383 18.9982 59.9258 18.5881 59.5352 18.2365C59.1445 17.8459 58.7539 17.4943 58.3633 17.1818C57.9727 16.8303 57.582 16.4787 57.1914 16.1271C56.8398 15.7756 56.5469 15.3459 56.3125 14.8381C55.8047 14.7599 55.3555 14.6232 54.9648 14.4279C54.5742 14.1935 54.1836 13.9787 53.793 13.7834C53.4414 13.549 53.0508 13.3342 52.6211 13.1389C52.2305 12.9435 51.7617 12.8264 51.2148 12.7873C50.3555 12.3576 49.5742 12.0451 48.8711 11.8498C48.207 11.6545 47.6992 11.4006 47.3477 11.0881C47.0742 11.0881 46.8594 11.1467 46.7031 11.2639C47.0938 12.7482 47.3867 14.1545 47.582 15.4826C47.7773 16.7717 47.875 18.0803 47.875 19.4084C47.9141 20.6974 47.8555 22.0256 47.6992 23.3928C47.543 24.7599 47.3281 26.2443 47.0547 27.8459C47.4453 27.8068 47.7969 27.7287 48.1094 27.6115C48.4609 27.4553 48.793 27.299 49.1055 27.1428C49.457 26.9865 49.8086 26.8498 50.1602 26.7326C50.5508 26.5764 51 26.4787 51.5078 26.4396C51.625 26.2053 51.7812 26.0099 51.9766 25.8537C52.2109 25.6974 52.4258 25.5217 52.6211 25.3264Z" fill="black"/>
<path d="M79.8672 33.8224C80.0625 34.9943 79.9844 35.9123 79.6328 36.5764C79.3203 37.2404 78.8516 37.7287 78.2266 38.0412C77.6406 38.3928 76.957 38.5881 76.1758 38.6271C75.3945 38.6662 74.6523 38.6271 73.9492 38.5099C73.5586 37.9631 73.207 37.2795 72.8945 36.4592C72.582 35.6389 72.2891 34.799 72.0156 33.9396C71.7422 33.0412 71.4883 32.1623 71.2539 31.3029C71.0586 30.4435 70.8828 29.6818 70.7266 29.0178C70.9219 28.549 71.0391 28.0217 71.0781 27.4357C71.1562 26.8107 71.1953 26.1857 71.1953 25.5607C71.2344 24.9357 71.2539 24.3107 71.2539 23.6857C71.293 23.0217 71.3516 22.3967 71.4297 21.8107C71.7031 20.1701 72.0938 18.6076 72.6016 17.1232C73.1484 15.6389 73.5781 14.0959 73.8906 12.4943C73.9688 12.1428 73.9297 11.8107 73.7734 11.4982C73.6562 11.1857 73.6367 10.8928 73.7148 10.6193C73.7539 10.4631 73.8711 10.3654 74.0664 10.3264C74.2617 10.2482 74.3789 10.1115 74.418 9.9162C74.5352 9.48651 74.5547 9.13495 74.4766 8.86151C74.4375 8.58807 74.5156 8.25604 74.7109 7.86542C74.9062 7.55292 75.1406 7.1037 75.4141 6.51776C75.7266 5.89276 75.8438 5.24823 75.7656 4.58417C76.1172 4.34979 76.4492 4.07635 76.7617 3.76385C77.0742 3.45135 77.3867 3.17792 77.6992 2.94354C78.0508 2.6701 78.4219 2.43573 78.8125 2.24042C79.2422 2.0451 79.75 1.94745 80.3359 1.94745C80.6484 2.33807 80.8438 2.76776 80.9219 3.23651C81.0391 3.70526 81.1367 4.17401 81.2148 4.64276C81.332 5.11151 81.4883 5.56073 81.6836 5.99042C81.8789 6.38104 82.2109 6.69354 82.6797 6.92792C82.6797 7.24042 82.6797 7.63104 82.6797 8.09979C82.6797 8.56854 82.6992 9.03729 82.7383 9.50604C82.7773 9.93573 82.8555 10.3459 82.9727 10.7365C83.1289 11.0881 83.3633 11.3224 83.6758 11.4396C82.9727 13.3146 82.3086 15.1701 81.6836 17.006C81.0977 18.842 80.6094 20.6974 80.2188 22.5724C79.8281 24.4084 79.5742 26.2639 79.457 28.1389C79.3789 30.0139 79.5156 31.9084 79.8672 33.8224Z" fill="black"/>
<path d="M98.6758 27.2599C98.3242 27.3381 98.0703 27.5529 97.9141 27.9045C97.7578 28.217 97.6016 28.549 97.4453 28.9006C97.3281 29.2521 97.1914 29.5842 97.0352 29.8967C96.918 30.1701 96.7227 30.3068 96.4492 30.3068C96.4102 30.6193 96.293 30.8928 96.0977 31.1271C95.9414 31.3615 95.7852 31.6154 95.6289 31.8889C95.4727 32.1232 95.3555 32.3967 95.2773 32.7092C95.1992 32.9826 95.2383 33.3146 95.3945 33.7053C95.082 33.9396 94.8867 34.2717 94.8086 34.7014C94.7305 35.131 94.6328 35.5412 94.5156 35.9318C94.4375 36.3224 94.2812 36.6545 94.0469 36.9279C93.8125 37.2014 93.3828 37.3185 92.7578 37.2795C92.6406 37.4357 92.6211 37.5334 92.6992 37.5724C92.7773 37.6115 92.8359 37.7482 92.875 37.9826C92.4453 37.9045 92.1133 37.924 91.8789 38.0412C91.6836 38.1974 91.4297 38.2951 91.1172 38.3342C90.375 38.0998 89.75 37.6896 89.2422 37.1037C88.7734 36.5178 88.3438 35.8732 87.9531 35.1701C87.6016 34.4279 87.2695 33.6857 86.957 32.9435C86.6836 32.2014 86.4102 31.5568 86.1367 31.0099C86.2539 30.5803 86.2734 30.1701 86.1953 29.7795C86.1172 29.3498 85.9805 28.9982 85.7852 28.7248C87.6992 24.6623 89.7891 20.3264 92.0547 15.717C94.3203 11.1076 96.4688 6.55682 98.5 2.06464C99.3984 2.4162 100.277 2.82635 101.137 3.2951C102.035 3.72479 102.836 4.2326 103.539 4.81854C104.281 5.40448 104.906 6.08807 105.414 6.86932C105.922 7.61151 106.254 8.45135 106.41 9.38885C106.332 9.62323 106.234 9.72089 106.117 9.68182C106.039 9.6037 105.961 9.62323 105.883 9.74042C106.039 9.93573 106.117 10.0724 106.117 10.1506C106.156 10.2287 106.156 10.3068 106.117 10.3849C106.117 10.4631 106.117 10.5803 106.117 10.7365C106.117 10.8537 106.176 11.0295 106.293 11.2639C106.137 11.2248 106.02 11.2443 105.941 11.3224C105.902 11.4006 105.785 11.4006 105.59 11.3224C105.746 11.7521 105.785 12.1037 105.707 12.3771C105.668 12.6506 105.59 12.9045 105.473 13.1389C105.355 13.3342 105.258 13.5685 105.18 13.842C105.102 14.0764 105.121 14.3889 105.238 14.7795C105.121 14.7795 105.023 14.8185 104.945 14.8967C104.906 14.9357 104.867 14.9943 104.828 15.0724C104.789 15.1115 104.73 15.1701 104.652 15.2482C104.613 15.2873 104.535 15.2873 104.418 15.2482C104.535 16.1076 104.574 16.967 104.535 17.8264C104.496 18.6857 104.457 19.5646 104.418 20.4631C104.418 21.3224 104.438 22.2404 104.477 23.217C104.516 24.1545 104.652 25.131 104.887 26.1467C106.293 25.3264 107.406 24.2717 108.227 22.9826C109.086 21.6935 109.77 20.2482 110.277 18.6467C110.824 17.0451 111.234 15.3264 111.508 13.4904C111.781 11.6545 112.074 9.77948 112.387 7.86542C112.738 7.51385 113.012 7.08417 113.207 6.57635C113.402 6.06854 113.578 5.5412 113.734 4.99432C113.891 4.40839 114.047 3.84198 114.203 3.2951C114.359 2.70917 114.555 2.18182 114.789 1.71307C115.375 1.7912 115.863 1.98651 116.254 2.29901C116.684 2.57245 117.074 2.88495 117.426 3.23651C117.777 3.54901 118.148 3.86151 118.539 4.17401C118.93 4.44745 119.418 4.62323 120.004 4.70135C120.473 5.36542 120.902 6.00995 121.293 6.63495C121.684 7.25995 121.938 7.92401 122.055 8.62714C121.859 8.93964 121.703 9.2912 121.586 9.68182C121.508 10.0724 121.41 10.4631 121.293 10.8537C121.176 11.2443 121.02 11.6154 120.824 11.967C120.629 12.2795 120.355 12.5529 120.004 12.7873C119.887 13.8029 119.73 14.7404 119.535 15.5998C119.379 16.4201 119.203 17.2404 119.008 18.0607C118.852 18.881 118.715 19.7404 118.598 20.6389C118.48 21.4982 118.441 22.4553 118.48 23.5099C118.168 24.4084 117.836 25.3654 117.484 26.381C117.133 27.3967 116.859 28.3146 116.664 29.1349C116.039 29.6428 115.551 30.2482 115.199 30.9514C114.848 31.6545 114.477 32.3576 114.086 33.0607C113.93 33.217 113.832 33.256 113.793 33.1779C113.754 33.0998 113.617 33.0412 113.383 33.0021C113.422 33.1584 113.422 33.2756 113.383 33.3537C113.344 33.4318 113.285 33.5099 113.207 33.5881C113.168 33.6271 113.129 33.7053 113.09 33.8224C113.09 33.9396 113.129 34.0959 113.207 34.2912C112.66 34.5256 112.172 34.8576 111.742 35.2873C111.312 35.717 110.844 36.1076 110.336 36.4592C109.867 36.8107 109.281 37.0451 108.578 37.1623C107.914 37.2795 107.035 37.1428 105.941 36.7521C104.34 35.5803 102.914 34.2326 101.664 32.7092C100.453 31.1857 99.457 29.3693 98.6758 27.2599Z" fill="black"/>
<path d="M151 20.4631C151.586 20.5412 151.996 20.6779 152.23 20.8732C152.504 21.0685 152.68 21.3224 152.758 21.6349C152.875 21.9084 152.914 22.2209 152.875 22.5724C152.836 22.924 152.816 23.2756 152.816 23.6271C151.84 24.2912 150.492 24.7599 148.773 25.0334C147.055 25.2678 145.258 25.4435 143.383 25.5607C141.508 25.6389 139.691 25.6779 137.934 25.6779C136.176 25.6779 134.789 25.7365 133.773 25.8537C131.664 26.0881 130.023 26.3224 128.852 26.5568C127.719 26.7521 126.938 26.9474 126.508 27.1428C125.766 27.1037 125.18 26.967 124.75 26.7326C124.32 26.4982 123.969 26.2248 123.695 25.9123C123.422 25.5607 123.188 25.1701 122.992 24.7404C122.797 24.3107 122.562 23.8615 122.289 23.3928C122.445 23.0803 122.484 22.631 122.406 22.0451C122.328 21.4592 122.094 21.0099 121.703 20.6974C122.016 20.6584 122.25 20.4435 122.406 20.0529C122.562 19.6232 122.562 19.3107 122.406 19.1154C123.031 18.9592 123.695 18.8615 124.398 18.8224C125.141 18.7443 125.863 18.6857 126.566 18.6467C127.27 18.6076 127.934 18.549 128.559 18.4709C129.223 18.3537 129.789 18.1779 130.258 17.9435C132.211 17.9045 134.223 17.8459 136.293 17.7678C138.402 17.6896 140.375 17.6115 142.211 17.5334C142.875 17.7287 143.656 17.8459 144.555 17.8849C145.453 17.8849 146.332 17.9435 147.191 18.0607C148.051 18.1389 148.832 18.3537 149.535 18.7053C150.238 19.0568 150.727 19.6428 151 20.4631Z" fill="black"/>
<path d="M166.527 31.8303C166.098 33.3928 165.707 34.5842 165.355 35.4045C165.043 36.1857 164.555 37.006 163.891 37.8654C163.383 37.7873 163.031 37.8459 162.836 38.0412C162.641 38.2365 162.426 38.4123 162.191 38.5685C161.84 38.6467 161.586 38.6467 161.43 38.5685C161.273 38.4904 161.137 38.3928 161.02 38.2756C160.902 38.1974 160.746 38.0998 160.551 37.9826C160.395 37.9045 160.141 37.8654 159.789 37.8654C159.711 37.5529 159.613 37.2599 159.496 36.9865C159.418 36.7131 159.164 36.6154 158.734 36.6935C158.812 36.381 158.832 36.1271 158.793 35.9318C158.754 35.6974 158.695 35.5021 158.617 35.3459C158.578 35.1506 158.539 34.9748 158.5 34.8185C158.461 34.6232 158.48 34.3889 158.559 34.1154C158.363 34.1154 158.207 33.9787 158.09 33.7053C157.973 33.4318 157.836 33.1584 157.68 32.8849C157.797 32.1818 157.914 31.5178 158.031 30.8928C158.148 30.2678 158.285 29.6818 158.441 29.1349C158.637 28.5881 158.793 28.0412 158.91 27.4943C159.027 26.9474 158.969 26.381 158.734 25.7951C158.891 25.9123 159.008 25.8928 159.086 25.7365C159.164 25.5412 159.223 25.3068 159.262 25.0334C159.301 24.7209 159.32 24.4279 159.32 24.1545C159.32 23.842 159.301 23.5881 159.262 23.3928C159.652 22.3771 159.965 21.342 160.199 20.2873C160.473 19.1935 160.707 18.1193 160.902 17.0646C161.137 16.0099 161.371 14.9748 161.605 13.9592C161.84 12.9435 162.152 12.006 162.543 11.1467C162.973 11.0685 163.441 11.1271 163.949 11.3224C164.496 11.4787 164.828 11.6935 164.945 11.967C165.961 11.1857 166.859 10.2482 167.641 9.15448C168.422 8.02167 169.223 6.92792 170.043 5.87323C170.863 4.81854 171.762 3.88104 172.738 3.06073C173.754 2.24042 175.023 1.75214 176.547 1.59589C177.328 2.18182 178.188 2.78729 179.125 3.41229C180.102 3.99823 180.902 4.77948 181.527 5.75604C181.84 5.91229 182.094 6.08807 182.289 6.28339C182.523 6.43964 182.797 6.61542 183.109 6.81073V7.51385C183.578 7.94354 183.949 8.45135 184.223 9.03729C184.535 9.58417 184.809 10.1896 185.043 10.8537C185.277 11.4787 185.512 12.1232 185.746 12.7873C185.98 13.4123 186.254 14.0178 186.566 14.6037C186.488 14.799 186.449 14.9748 186.449 15.131C186.449 15.2482 186.469 15.3849 186.508 15.5412C186.586 15.6974 186.645 15.8537 186.684 16.0099C186.723 16.1662 186.723 16.381 186.684 16.6545C186.566 18.3732 186 19.7599 184.984 20.8146C184.008 21.8693 182.816 22.7482 181.41 23.4514C180.004 24.1154 178.5 24.6818 176.898 25.1506C175.297 25.6193 173.852 26.1271 172.562 26.674C172.562 26.8303 172.621 26.9084 172.738 26.9084C172.895 26.9084 172.953 27.006 172.914 27.2014C173.852 27.7873 174.594 28.256 175.141 28.6076C175.688 28.9592 176.195 29.2521 176.664 29.4865C177.172 29.7209 177.699 29.9357 178.246 30.131C178.832 30.2873 179.633 30.4826 180.648 30.717C181.664 30.9514 182.445 31.1467 182.992 31.3029C183.578 31.4201 184.105 31.5373 184.574 31.6545C185.043 31.7326 185.512 31.8107 185.98 31.8889C186.488 31.9279 187.191 31.9865 188.09 32.0646C188.441 32.4162 188.734 32.8459 188.969 33.3537C189.242 33.8224 189.418 34.3107 189.496 34.8185C189.574 35.2873 189.594 35.756 189.555 36.2248C189.516 36.6545 189.379 37.006 189.145 37.2795C189.184 37.3967 189.262 37.4553 189.379 37.4553C189.535 37.4162 189.691 37.4162 189.848 37.4553C189.613 37.6115 189.418 37.8068 189.262 38.0412C189.105 38.2756 188.949 38.5099 188.793 38.7443C188.637 38.9787 188.461 39.174 188.266 39.3303C188.07 39.5256 187.797 39.6428 187.445 39.6818C186.234 40.1506 184.711 40.1701 182.875 39.7404C181.039 39.3498 178.715 38.6076 175.902 37.5139C174.496 36.967 173.344 36.4982 172.445 36.1076C171.586 35.6779 170.824 35.2678 170.16 34.8771C169.535 34.4474 168.949 33.9982 168.402 33.5295C167.895 33.0607 167.27 32.4943 166.527 31.8303ZM174.906 11.7326C174.477 12.3576 173.988 12.924 173.441 13.4318C172.934 13.9396 172.426 14.467 171.918 15.0139C171.449 15.5217 171.02 16.1076 170.629 16.7717C170.238 17.3967 169.965 18.1389 169.809 18.9982C171.176 18.842 172.602 18.4709 174.086 17.8849C175.57 17.2599 176.977 16.674 178.305 16.1271C178.148 14.9162 177.719 13.9396 177.016 13.1974C176.352 12.4553 175.648 11.967 174.906 11.7326Z" fill="black"/>
<path d="M222.25 4.93573C222.289 5.20917 222.289 5.42401 222.25 5.58026C222.25 5.69745 222.23 5.81464 222.191 5.93182C222.191 6.04901 222.191 6.18573 222.191 6.34198C222.191 6.45917 222.23 6.65448 222.309 6.92792C221.488 8.25604 220.531 9.17401 219.438 9.68182C218.383 10.1506 217.23 10.5021 215.98 10.7365C214.73 10.9318 213.441 11.1467 212.113 11.381C210.824 11.6154 209.535 12.1232 208.246 12.9045C207.738 12.7092 207.27 12.7092 206.84 12.9045C206.449 13.0998 205.863 13.1584 205.082 13.0803C204.848 13.3146 204.555 13.4904 204.203 13.6076C203.852 13.6857 203.5 13.7834 203.148 13.9006C203.305 14.2521 203.363 14.6232 203.324 15.0139C203.324 15.3654 203.383 15.6584 203.5 15.8928C204.867 16.0099 206.371 15.9904 208.012 15.8342C209.691 15.6779 211.332 15.5803 212.934 15.5412C212.973 15.7365 212.953 15.8732 212.875 15.9514C212.797 15.9904 212.777 16.0881 212.816 16.2443C213.09 16.4396 213.363 16.6935 213.637 17.006C213.91 17.2795 214.184 17.5529 214.457 17.8264C214.73 18.0998 215.004 18.3342 215.277 18.5295C215.59 18.6857 215.941 18.7443 216.332 18.7053C216.488 19.0178 216.586 19.3693 216.625 19.7599C216.703 20.1115 216.664 20.4826 216.508 20.8732C215.883 21.3029 215.258 21.7521 214.633 22.2209C214.008 22.6506 213.344 23.0412 212.641 23.3928C211.977 23.7443 211.254 24.0373 210.473 24.2717C209.73 24.467 208.891 24.5451 207.953 24.506C207.758 24.506 207.602 24.506 207.484 24.506C207.406 24.506 207.289 24.4474 207.133 24.3303C206.82 24.5256 206.371 24.5842 205.785 24.506C205.238 24.4279 204.809 24.4865 204.496 24.6818C204.066 24.4865 203.539 24.4084 202.914 24.4474C202.328 24.4474 201.801 24.3693 201.332 24.2131C200.707 25.0334 200.141 25.9123 199.633 26.8498C199.125 27.7873 198.676 28.7834 198.285 29.8381C199.613 30.0334 200.707 30.1115 201.566 30.0724C202.465 30.0334 203.305 29.9748 204.086 29.8967C204.867 29.7795 205.668 29.6818 206.488 29.6037C207.309 29.4865 208.344 29.4474 209.594 29.4865C210.375 29.0568 211.293 28.7834 212.348 28.6662C213.441 28.5099 214.438 28.2756 215.336 27.9631C215.648 28.0803 215.922 28.2951 216.156 28.6076C216.391 28.881 216.605 29.1545 216.801 29.4279C217.035 29.6623 217.27 29.8771 217.504 30.0724C217.738 30.2678 218.031 30.3459 218.383 30.3068C218.539 30.4631 218.637 30.6584 218.676 30.8928C218.754 31.0881 218.812 31.2834 218.852 31.4787C218.891 31.674 218.949 31.8498 219.027 32.006C219.145 32.1232 219.32 32.1623 219.555 32.1232C218.969 33.4123 218.285 34.4084 217.504 35.1115C216.762 35.7756 215.902 36.2834 214.926 36.6349C213.949 36.9865 212.855 37.2599 211.645 37.4553C210.473 37.6506 209.164 37.8849 207.719 38.1584C207.367 38.2365 207.074 38.217 206.84 38.0998C206.605 38.0217 206.332 37.9826 206.02 37.9826C205.121 38.1779 204.047 38.3537 202.797 38.5099C201.547 38.6662 200.277 38.7248 198.988 38.6857C197.699 38.6467 196.469 38.4709 195.297 38.1584C194.125 37.8849 193.168 37.3771 192.426 36.6349C192.113 36.3615 191.898 36.049 191.781 35.6974C191.703 35.3068 191.449 35.0139 191.02 34.8185C190.98 34.3107 190.902 33.7443 190.785 33.1193C190.668 32.4943 190.551 31.8498 190.434 31.1857C190.316 30.4826 190.219 29.799 190.141 29.1349C190.102 28.4709 190.141 27.8654 190.258 27.3185C190.375 26.7326 190.609 26.2053 190.961 25.7365C191.352 25.2678 191.488 24.7599 191.371 24.2131C191.566 24.174 191.684 24.0764 191.723 23.9201C191.762 23.7248 191.918 23.6467 192.191 23.6857C192.426 22.9826 192.68 22.3185 192.953 21.6935C193.227 21.0685 193.5 20.4631 193.773 19.8771C194.086 19.2912 194.379 18.7053 194.652 18.1193C194.965 17.4943 195.258 16.8107 195.531 16.0685C194.984 15.5607 194.574 15.0139 194.301 14.4279C194.066 13.8029 193.891 13.1974 193.773 12.6115C193.656 11.9865 193.559 11.3615 193.48 10.7365C193.402 10.0724 193.266 9.40839 193.07 8.74432C193.461 8.15839 193.93 7.68964 194.477 7.33807C195.062 6.94745 195.688 6.63495 196.352 6.40057C197.016 6.1662 197.738 5.97089 198.52 5.81464C199.301 5.65839 200.121 5.4826 200.98 5.28729C202.543 4.77948 203.93 4.38885 205.141 4.11542C206.391 3.84198 207.602 3.62714 208.773 3.47089C209.984 3.27557 211.234 3.09979 212.523 2.94354C213.812 2.78729 215.277 2.55292 216.918 2.24042C217.27 2.59198 217.602 2.76776 217.914 2.76776C218.07 2.4162 218.246 2.31854 218.441 2.47479C218.676 2.59198 218.773 2.47479 218.734 2.12323C219.125 2.78729 219.613 3.3537 220.199 3.82245C220.824 4.25214 221.508 4.62323 222.25 4.93573Z" fill="black"/>
<path d="M244.633 38.0412C244.008 38.0803 243.227 38.0607 242.289 37.9826C241.391 37.9045 240.551 38.0412 239.77 38.3928C237.699 38.3146 235.59 38.0607 233.441 37.631C231.293 37.2014 229.32 36.674 227.523 36.049C227.133 35.6193 226.742 35.2287 226.352 34.8771C225.961 34.4865 225.434 34.2131 224.77 34.0568C223.832 33.3146 223.07 32.4162 222.484 31.3615C221.898 30.2678 221.43 29.1154 221.078 27.9045C220.727 26.6935 220.492 25.4631 220.375 24.2131C220.258 22.924 220.219 21.6935 220.258 20.5217C220.844 18.7639 221.664 17.2599 222.719 16.0099C223.812 14.7209 224.926 13.4514 226.059 12.2014C226.566 11.967 226.938 11.7326 227.172 11.4982C227.445 11.2248 227.719 10.9904 227.992 10.7951C228.305 10.5607 228.598 10.3459 228.871 10.1506C229.184 9.9162 229.457 9.64276 229.691 9.33026C230.512 9.13495 231.215 8.86151 231.801 8.50995C232.426 8.11932 233.031 7.7287 233.617 7.33807C234.203 6.90839 234.809 6.51776 235.434 6.1662C236.059 5.81464 236.781 5.5412 237.602 5.34589C237.914 4.99432 238.285 4.72089 238.715 4.52557C239.145 4.2912 239.574 4.07635 240.004 3.88104C240.473 3.64667 240.902 3.41229 241.293 3.17792C241.723 2.94354 242.055 2.63104 242.289 2.24042C242.484 2.55292 242.758 2.6701 243.109 2.59198C243.461 2.47479 243.793 2.3576 244.105 2.24042C244.301 2.20135 244.457 2.24042 244.574 2.3576C244.73 2.47479 244.867 2.59198 244.984 2.70917C245.102 2.82635 245.199 2.90448 245.277 2.94354C245.395 2.94354 245.492 2.84589 245.57 2.65057C245.766 2.65057 245.824 2.74823 245.746 2.94354C245.668 3.13885 245.609 3.27557 245.57 3.3537C245.883 3.31464 246.137 3.39276 246.332 3.58807C246.566 3.74432 246.918 3.84198 247.387 3.88104C247.543 4.07635 247.582 4.2326 247.504 4.34979C247.426 4.42792 247.387 4.58417 247.387 4.81854C248.559 5.1701 249.301 5.73651 249.613 6.51776C249.926 7.25995 249.945 8.0412 249.672 8.86151C249.398 9.68182 248.91 10.4435 248.207 11.1467C247.504 11.8498 246.742 12.3185 245.922 12.5529C244.047 13.0607 242.27 13.6271 240.59 14.2521C238.949 14.8381 237.602 15.717 236.547 16.8889C235.609 17.1623 234.77 17.5334 234.027 18.0021C233.324 18.4318 232.641 18.9396 231.977 19.5256C231.352 20.0724 230.746 20.6584 230.16 21.2834C229.613 21.8693 229.027 22.4553 228.402 23.0412C228.441 23.5881 228.344 24.0178 228.109 24.3303C227.914 24.6037 227.719 24.8967 227.523 25.2092C227.602 25.7951 227.738 26.3224 227.934 26.7912C228.129 27.2209 228.344 27.6506 228.578 28.0803C231.156 28.8615 233.891 29.3498 236.781 29.5451C239.711 29.7404 242.641 29.8576 245.57 29.8967C245.844 30.2873 246.156 30.6584 246.508 31.0099C246.898 31.3224 247.25 31.674 247.562 32.0646C247.875 32.4162 248.129 32.8264 248.324 33.2951C248.52 33.7248 248.559 34.2717 248.441 34.9357C247.895 35.5217 247.289 36.0685 246.625 36.5764C245.961 37.0451 245.297 37.5334 244.633 38.0412Z" fill="black"/>
<path d="M263.5 33.8224C263.695 34.9943 263.617 35.9123 263.266 36.5764C262.953 37.2404 262.484 37.7287 261.859 38.0412C261.273 38.3928 260.59 38.5881 259.809 38.6271C259.027 38.6662 258.285 38.6271 257.582 38.5099C257.191 37.9631 256.84 37.2795 256.527 36.4592C256.215 35.6389 255.922 34.799 255.648 33.9396C255.375 33.0412 255.121 32.1623 254.887 31.3029C254.691 30.4435 254.516 29.6818 254.359 29.0178C254.555 28.549 254.672 28.0217 254.711 27.4357C254.789 26.8107 254.828 26.1857 254.828 25.5607C254.867 24.9357 254.887 24.3107 254.887 23.6857C254.926 23.0217 254.984 22.3967 255.062 21.8107C255.336 20.1701 255.727 18.6076 256.234 17.1232C256.781 15.6389 257.211 14.0959 257.523 12.4943C257.602 12.1428 257.562 11.8107 257.406 11.4982C257.289 11.1857 257.27 10.8928 257.348 10.6193C257.387 10.4631 257.504 10.3654 257.699 10.3264C257.895 10.2482 258.012 10.1115 258.051 9.9162C258.168 9.48651 258.188 9.13495 258.109 8.86151C258.07 8.58807 258.148 8.25604 258.344 7.86542C258.539 7.55292 258.773 7.1037 259.047 6.51776C259.359 5.89276 259.477 5.24823 259.398 4.58417C259.75 4.34979 260.082 4.07635 260.395 3.76385C260.707 3.45135 261.02 3.17792 261.332 2.94354C261.684 2.6701 262.055 2.43573 262.445 2.24042C262.875 2.0451 263.383 1.94745 263.969 1.94745C264.281 2.33807 264.477 2.76776 264.555 3.23651C264.672 3.70526 264.77 4.17401 264.848 4.64276C264.965 5.11151 265.121 5.56073 265.316 5.99042C265.512 6.38104 265.844 6.69354 266.312 6.92792C266.312 7.24042 266.312 7.63104 266.312 8.09979C266.312 8.56854 266.332 9.03729 266.371 9.50604C266.41 9.93573 266.488 10.3459 266.605 10.7365C266.762 11.0881 266.996 11.3224 267.309 11.4396C266.605 13.3146 265.941 15.1701 265.316 17.006C264.73 18.842 264.242 20.6974 263.852 22.5724C263.461 24.4084 263.207 26.2639 263.09 28.1389C263.012 30.0139 263.148 31.9084 263.5 33.8224Z" fill="black"/>
<path d="M292.387 1.59589C294.027 1.7912 295.492 2.12323 296.781 2.59198C298.07 3.06073 299.164 3.68573 300.062 4.46698C300.688 5.44354 301.273 6.49823 301.82 7.63104C302.406 8.76385 302.836 9.95526 303.109 11.2053C303.422 12.4162 303.559 13.6662 303.52 14.9553C303.52 16.2443 303.246 17.5529 302.699 18.881C301.566 20.2873 300.18 21.4396 298.539 22.3381C296.938 23.1974 295.199 23.9006 293.324 24.4474C291.449 24.9943 289.496 25.4631 287.465 25.8537C285.473 26.2443 283.52 26.6349 281.605 27.0256C281.645 27.924 281.645 28.881 281.605 29.8967C281.605 30.8732 281.508 31.8693 281.312 32.8849C281.156 33.8615 280.902 34.8185 280.551 35.756C280.199 36.6935 279.73 37.5529 279.145 38.3342C278.48 38.3342 277.797 38.4123 277.094 38.5685C276.391 38.7639 275.766 38.9201 275.219 39.0373C274.945 38.881 274.691 38.7248 274.457 38.5685C274.262 38.4514 273.969 38.3732 273.578 38.3342C273.656 37.9435 273.559 37.5529 273.285 37.1623C273.012 36.7326 272.738 36.3029 272.465 35.8732C272.191 35.4435 271.996 35.0334 271.879 34.6428C271.801 34.2521 271.996 33.881 272.465 33.5295C272.191 33.256 272.055 32.9045 272.055 32.4748C272.328 32.006 272.562 31.3615 272.758 30.5412C272.992 29.7209 273.168 28.9201 273.285 28.1389C273.441 27.3185 273.48 26.5764 273.402 25.9123C273.324 25.2482 272.934 24.7599 272.23 24.4474C272.27 24.3693 272.348 24.3303 272.465 24.3303C272.582 24.3303 272.699 24.3107 272.816 24.2717C272.504 24.0373 272.309 23.7053 272.23 23.2756C272.191 22.8459 272.055 22.4748 271.82 22.1623C271.898 21.967 271.957 21.7912 271.996 21.6349C272.035 21.4787 272.172 21.4201 272.406 21.4592C272.289 20.756 272.289 20.092 272.406 19.467C272.562 18.842 272.777 18.256 273.051 17.7092C273.324 17.1232 273.656 16.5568 274.047 16.0099C274.438 15.4631 274.809 14.9162 275.16 14.3693C275.434 14.3303 275.59 14.3693 275.629 14.4865C275.707 14.6037 275.844 14.5842 276.039 14.4279C276.547 14.0373 276.898 13.6271 277.094 13.1974C277.289 12.7678 277.387 12.2795 277.387 11.7326C277.66 10.9123 277.992 10.092 278.383 9.27167C278.773 8.41229 279.203 7.63104 279.672 6.92792C280.141 6.22479 280.648 5.59979 281.195 5.05292C281.781 4.50604 282.387 4.09589 283.012 3.82245C283.48 3.43182 284.066 3.08026 284.77 2.76776C285.473 2.4162 286.234 2.16229 287.055 2.00604C287.875 1.81073 288.695 1.71307 289.516 1.71307C290.375 1.67401 291.156 1.75214 291.859 1.94745C292.055 2.02557 292.152 1.98651 292.152 1.83026C292.191 1.67401 292.27 1.59589 292.387 1.59589ZM289.984 15.5998C290.961 15.1701 291.996 14.8381 293.09 14.6037C294.223 14.3303 295.16 13.842 295.902 13.1389C295.434 12.7092 294.75 12.3381 293.852 12.0256C292.953 11.674 291.977 11.4592 290.922 11.381C289.867 11.3029 288.793 11.4006 287.699 11.674C286.645 11.9084 285.727 12.3771 284.945 13.0803C284.711 13.7834 284.516 14.3498 284.359 14.7795C284.203 15.1701 283.988 15.6584 283.715 16.2443C283.793 16.4396 283.91 16.5959 284.066 16.7131C284.262 16.7912 284.398 16.9279 284.477 17.1232C285.375 16.6545 286.273 16.4006 287.172 16.3615C288.109 16.2834 289.047 16.0295 289.984 15.5998Z" fill="black"/>
<path d="M334.457 4.93573C334.496 5.20917 334.496 5.42401 334.457 5.58026C334.457 5.69745 334.438 5.81464 334.398 5.93182C334.398 6.04901 334.398 6.18573 334.398 6.34198C334.398 6.45917 334.438 6.65448 334.516 6.92792C333.695 8.25604 332.738 9.17401 331.645 9.68182C330.59 10.1506 329.438 10.5021 328.188 10.7365C326.938 10.9318 325.648 11.1467 324.32 11.381C323.031 11.6154 321.742 12.1232 320.453 12.9045C319.945 12.7092 319.477 12.7092 319.047 12.9045C318.656 13.0998 318.07 13.1584 317.289 13.0803C317.055 13.3146 316.762 13.4904 316.41 13.6076C316.059 13.6857 315.707 13.7834 315.355 13.9006C315.512 14.2521 315.57 14.6232 315.531 15.0139C315.531 15.3654 315.59 15.6584 315.707 15.8928C317.074 16.0099 318.578 15.9904 320.219 15.8342C321.898 15.6779 323.539 15.5803 325.141 15.5412C325.18 15.7365 325.16 15.8732 325.082 15.9514C325.004 15.9904 324.984 16.0881 325.023 16.2443C325.297 16.4396 325.57 16.6935 325.844 17.006C326.117 17.2795 326.391 17.5529 326.664 17.8264C326.938 18.0998 327.211 18.3342 327.484 18.5295C327.797 18.6857 328.148 18.7443 328.539 18.7053C328.695 19.0178 328.793 19.3693 328.832 19.7599C328.91 20.1115 328.871 20.4826 328.715 20.8732C328.09 21.3029 327.465 21.7521 326.84 22.2209C326.215 22.6506 325.551 23.0412 324.848 23.3928C324.184 23.7443 323.461 24.0373 322.68 24.2717C321.938 24.467 321.098 24.5451 320.16 24.506C319.965 24.506 319.809 24.506 319.691 24.506C319.613 24.506 319.496 24.4474 319.34 24.3303C319.027 24.5256 318.578 24.5842 317.992 24.506C317.445 24.4279 317.016 24.4865 316.703 24.6818C316.273 24.4865 315.746 24.4084 315.121 24.4474C314.535 24.4474 314.008 24.3693 313.539 24.2131C312.914 25.0334 312.348 25.9123 311.84 26.8498C311.332 27.7873 310.883 28.7834 310.492 29.8381C311.82 30.0334 312.914 30.1115 313.773 30.0724C314.672 30.0334 315.512 29.9748 316.293 29.8967C317.074 29.7795 317.875 29.6818 318.695 29.6037C319.516 29.4865 320.551 29.4474 321.801 29.4865C322.582 29.0568 323.5 28.7834 324.555 28.6662C325.648 28.5099 326.645 28.2756 327.543 27.9631C327.855 28.0803 328.129 28.2951 328.363 28.6076C328.598 28.881 328.812 29.1545 329.008 29.4279C329.242 29.6623 329.477 29.8771 329.711 30.0724C329.945 30.2678 330.238 30.3459 330.59 30.3068C330.746 30.4631 330.844 30.6584 330.883 30.8928C330.961 31.0881 331.02 31.2834 331.059 31.4787C331.098 31.674 331.156 31.8498 331.234 32.006C331.352 32.1232 331.527 32.1623 331.762 32.1232C331.176 33.4123 330.492 34.4084 329.711 35.1115C328.969 35.7756 328.109 36.2834 327.133 36.6349C326.156 36.9865 325.062 37.2599 323.852 37.4553C322.68 37.6506 321.371 37.8849 319.926 38.1584C319.574 38.2365 319.281 38.217 319.047 38.0998C318.812 38.0217 318.539 37.9826 318.227 37.9826C317.328 38.1779 316.254 38.3537 315.004 38.5099C313.754 38.6662 312.484 38.7248 311.195 38.6857C309.906 38.6467 308.676 38.4709 307.504 38.1584C306.332 37.8849 305.375 37.3771 304.633 36.6349C304.32 36.3615 304.105 36.049 303.988 35.6974C303.91 35.3068 303.656 35.0139 303.227 34.8185C303.188 34.3107 303.109 33.7443 302.992 33.1193C302.875 32.4943 302.758 31.8498 302.641 31.1857C302.523 30.4826 302.426 29.799 302.348 29.1349C302.309 28.4709 302.348 27.8654 302.465 27.3185C302.582 26.7326 302.816 26.2053 303.168 25.7365C303.559 25.2678 303.695 24.7599 303.578 24.2131C303.773 24.174 303.891 24.0764 303.93 23.9201C303.969 23.7248 304.125 23.6467 304.398 23.6857C304.633 22.9826 304.887 22.3185 305.16 21.6935C305.434 21.0685 305.707 20.4631 305.98 19.8771C306.293 19.2912 306.586 18.7053 306.859 18.1193C307.172 17.4943 307.465 16.8107 307.738 16.0685C307.191 15.5607 306.781 15.0139 306.508 14.4279C306.273 13.8029 306.098 13.1974 305.98 12.6115C305.863 11.9865 305.766 11.3615 305.688 10.7365C305.609 10.0724 305.473 9.40839 305.277 8.74432C305.668 8.15839 306.137 7.68964 306.684 7.33807C307.27 6.94745 307.895 6.63495 308.559 6.40057C309.223 6.1662 309.945 5.97089 310.727 5.81464C311.508 5.65839 312.328 5.4826 313.188 5.28729C314.75 4.77948 316.137 4.38885 317.348 4.11542C318.598 3.84198 319.809 3.62714 320.98 3.47089C322.191 3.27557 323.441 3.09979 324.73 2.94354C326.02 2.78729 327.484 2.55292 329.125 2.24042C329.477 2.59198 329.809 2.76776 330.121 2.76776C330.277 2.4162 330.453 2.31854 330.648 2.47479C330.883 2.59198 330.98 2.47479 330.941 2.12323C331.332 2.78729 331.82 3.3537 332.406 3.82245C333.031 4.25214 333.715 4.62323 334.457 4.93573Z" fill="black"/>
<path d="M333.988 11.5568C334.262 10.7365 334.691 10.0334 335.277 9.44745C335.902 8.86151 336.566 8.37323 337.27 7.9826C338.012 7.55292 338.773 7.20135 339.555 6.92792C340.336 6.65448 341.078 6.4201 341.781 6.22479C343.344 5.56073 345.004 4.93573 346.762 4.34979C348.559 3.72479 350.375 3.17792 352.211 2.70917C354.086 2.24042 356 1.94745 357.953 1.83026C359.906 1.67401 361.957 1.90839 364.105 2.53339C364.223 2.92401 364.398 3.2951 364.633 3.64667C364.867 3.99823 365.102 4.34979 365.336 4.70135C365.609 5.05292 365.844 5.40448 366.039 5.75604C366.234 6.06854 366.352 6.40057 366.391 6.75214C366.781 7.1037 367.094 7.49432 367.328 7.92401C367.562 8.31464 367.602 8.84198 367.445 9.50604C367.055 9.81854 366.664 10.1115 366.273 10.3849C365.922 10.6193 365.531 10.8342 365.102 11.0295C363.656 10.6779 362.191 10.5607 360.707 10.6779C359.223 10.7951 357.895 10.8928 356.723 10.9709C356.371 10.6193 355.941 10.4435 355.434 10.4435C354.965 10.4435 354.457 10.5217 353.91 10.6779C353.402 10.8342 352.875 10.9904 352.328 11.1467C351.82 11.3029 351.332 11.342 350.863 11.2639C350.473 11.5764 349.984 11.7912 349.398 11.9084C348.852 11.9865 348.246 12.0646 347.582 12.1428C347.543 12.3381 347.582 12.4748 347.699 12.5529C347.816 12.592 347.836 12.7092 347.758 12.9045C347.992 13.1779 348.285 13.3732 348.637 13.4904C349.027 13.6076 349.418 13.7248 349.809 13.842C350.238 13.9592 350.609 14.1154 350.922 14.3107C351.234 14.467 351.449 14.7404 351.566 15.131C352.152 15.131 352.66 15.2678 353.09 15.5412C353.52 15.8146 353.871 16.1467 354.145 16.5373C354.418 16.9279 354.613 17.3576 354.73 17.8264C354.887 18.256 354.965 18.6467 354.965 18.9982C355.082 19.3107 355.219 19.4474 355.375 19.4084C355.531 19.3693 355.707 19.4474 355.902 19.6428C356.02 20.1506 356.312 20.6779 356.781 21.2248C357.25 21.7326 357.621 22.299 357.895 22.924C357.973 23.9006 358.031 24.7795 358.07 25.5607C358.109 26.3029 357.973 27.0646 357.66 27.8459C357.074 29.2912 356.254 30.5803 355.199 31.7131C354.184 32.8459 353.012 33.8615 351.684 34.7599C350.395 35.6193 349.008 36.3615 347.523 36.9865C346.039 37.6115 344.594 38.1389 343.188 38.5685C343.031 38.5295 342.875 38.5295 342.719 38.5685C342.562 38.6076 342.523 38.5099 342.602 38.2756C342.289 38.549 341.938 38.7248 341.547 38.8029C341.195 38.881 340.805 38.9006 340.375 38.8615C339.945 38.8615 339.496 38.842 339.027 38.8029C338.598 38.7639 338.188 38.7834 337.797 38.8615C337.523 38.5881 337.27 38.3146 337.035 38.0412C336.84 37.8068 336.684 37.4943 336.566 37.1037C336.371 37.1037 336.273 37.006 336.273 36.8107C336.312 36.6154 336.254 36.5178 336.098 36.5178C336.332 36.1271 336.43 35.9123 336.391 35.8732C336.391 35.7951 336.332 35.7365 336.215 35.6974C336.137 35.6584 336.059 35.6193 335.98 35.5803C335.902 35.5021 335.883 35.4045 335.922 35.2873C336.078 34.9748 336.137 34.6232 336.098 34.2326C336.059 33.8029 336.02 33.3732 335.98 32.9435C335.941 32.5139 335.961 32.1037 336.039 31.7131C336.156 31.3224 336.449 31.0099 336.918 30.7756C338.246 30.9318 339.496 30.8928 340.668 30.6584C341.879 30.3849 343.012 30.0139 344.066 29.5451C345.121 29.0764 346.117 28.5685 347.055 28.0217C348.031 27.4748 348.988 26.9865 349.926 26.5568C350.043 26.2053 350.199 25.9123 350.395 25.6779C350.629 25.4435 350.863 25.2287 351.098 25.0334C351.332 24.8381 351.547 24.6232 351.742 24.3889C351.938 24.1545 352.074 23.8615 352.152 23.5099C352.191 23.2365 352.113 23.0803 351.918 23.0412C351.762 22.9631 351.684 22.8068 351.684 22.5724L351.039 22.3967C350.297 21.967 349.457 21.6154 348.52 21.342C347.582 21.0295 346.781 20.6974 346.117 20.3459C345.688 20.5803 345.277 20.6389 344.887 20.5217C344.535 20.4045 344.066 20.2873 343.48 20.1701C342.152 20.092 340.863 19.9553 339.613 19.7599C338.402 19.5646 337.23 19.2131 336.098 18.7053C336.02 18.5099 335.922 18.3342 335.805 18.1779C335.688 18.0217 335.473 17.9826 335.16 18.0607C334.926 17.7482 334.691 17.4553 334.457 17.1818C334.223 16.8693 334.008 16.5373 333.812 16.1857C333.891 15.717 333.949 15.3264 333.988 15.0139C334.027 14.6623 333.91 14.3303 333.637 14.0178C333.793 13.5099 333.91 13.0998 333.988 12.7873C334.066 12.4748 334.066 12.0646 333.988 11.5568Z" fill="black"/>
</svg>
